<?xml version="1.0" encoding="utf-8" standalone="no"?>
<!DOCTYPE svg PUBLIC "-//W3C//DTD SVG 1.1//EN"
  "http://www.w3.org/Graphics/SVG/1.1/DTD/svg11.dtd">
<svg xmlns:xlink="http://www.w3.org/1999/xlink" width="237.6pt" height="201.6pt" viewBox="0 0 237.6 201.6" xmlns="http://www.w3.org/2000/svg" version="1.1">
 <metadata>
  <rdf:RDF xmlns:dc="http://purl.org/dc/elements/1.1/" xmlns:cc="http://creativecommons.org/ns#" xmlns:rdf="http://www.w3.org/1999/02/22-rdf-syntax-ns#">
   <cc:Work>
    <dc:type rdf:resource="http://purl.org/dc/dcmitype/StillImage"/>
    <dc:date>2022-02-08T14:47:13.585090</dc:date>
    <dc:format>image/svg+xml</dc:format>
    <dc:creator>
     <cc:Agent>
      <dc:title>Matplotlib v3.5.0, https://matplotlib.org/</dc:title>
     </cc:Agent>
    </dc:creator>
   </cc:Work>
  </rdf:RDF>
 </metadata>
 <defs>
  <style type="text/css">*{stroke-linejoin: round; stroke-linecap: butt}</style>
 </defs>
 <g id="figure_1">
  <g id="patch_1">
   <path d="M 0 201.6 
L 237.6 201.6 
L 237.6 0 
L 0 0 
z
" style="fill: #ffffff"/>
  </g>
  <g id="axes_1">
   <g id="patch_2">
    <path d="M 44.26 169.94 
L 205.94 169.94 
L 205.94 4.46 
L 44.26 4.46 
z
" style="fill: #ffffff"/>
   </g>
   <g id="patch_3">
    <path d="M 42.6432 169.94 
L 44.243669 169.94 
L 44.243669 169.661841 
L 42.6432 169.661841 
z
" clip-path="url(#p3f4f340359)" style="fill: #808080"/>
   </g>
   <g id="patch_4">
    <path d="M 44.243669 169.94 
L 45.844137 169.94 
L 45.844137 169.383682 
L 44.243669 169.383682 
z
" clip-path="url(#p3f4f340359)" style="fill: #808080"/>
   </g>
   <g id="patch_5">
    <path d="M 45.844137 169.94 
L 47.444606 169.94 
L 47.444606 169.661841 
L 45.844137 169.661841 
z
" clip-path="url(#p3f4f340359)" style="fill: #808080"/>
   </g>
   <g id="patch_6">
    <path d="M 47.444606 169.94 
L 49.045075 169.94 
L 49.045075 169.383682 
L 47.444606 169.383682 
z
" clip-path="url(#p3f4f340359)" style="fill: #808080"/>
   </g>
   <g id="patch_7">
    <path d="M 49.045075 169.94 
L 50.645543 169.94 
L 50.645543 169.383682 
L 49.045075 169.383682 
z
" clip-path="url(#p3f4f340359)" style="fill: #808080"/>
   </g>
   <g id="patch_8">
    <path d="M 50.645543 169.94 
L 52.246012 169.94 
L 52.246012 169.105524 
L 50.645543 169.105524 
z
" clip-path="url(#p3f4f340359)" style="fill: #808080"/>
   </g>
   <g id="patch_9">
    <path d="M 52.246012 169.94 
L 53.846481 169.94 
L 53.846481 169.661841 
L 52.246012 169.661841 
z
" clip-path="url(#p3f4f340359)" style="fill: #808080"/>
   </g>
   <g id="patch_10">
    <path d="M 53.846481 169.94 
L 55.446949 169.94 
L 55.446949 169.105524 
L 53.846481 169.105524 
z
" clip-path="url(#p3f4f340359)" style="fill: #808080"/>
   </g>
   <g id="patch_11">
    <path d="M 55.446949 169.94 
L 57.047418 169.94 
L 57.047418 169.661841 
L 55.446949 169.661841 
z
" clip-path="url(#p3f4f340359)" style="fill: #808080"/>
   </g>
   <g id="patch_12">
    <path d="M 57.047418 169.94 
L 58.647887 169.94 
L 58.647887 169.105524 
L 57.047418 169.105524 
z
" clip-path="url(#p3f4f340359)" style="fill: #808080"/>
   </g>
   <g id="patch_13">
    <path d="M 58.647887 169.94 
L 60.248356 169.94 
L 60.248356 169.105524 
L 58.647887 169.105524 
z
" clip-path="url(#p3f4f340359)" style="fill: #808080"/>
   </g>
   <g id="patch_14">
    <path d="M 60.248356 169.94 
L 61.848824 169.94 
L 61.848824 167.992888 
L 60.248356 167.992888 
z
" clip-path="url(#p3f4f340359)" style="fill: #808080"/>
   </g>
   <g id="patch_15">
    <path d="M 61.848824 169.94 
L 63.449293 169.94 
L 63.449293 163.820507 
L 61.848824 163.820507 
z
" clip-path="url(#p3f4f340359)" style="fill: #808080"/>
   </g>
   <g id="patch_16">
    <path d="M 63.449293 169.94 
L 65.049762 169.94 
L 65.049762 163.542348 
L 63.449293 163.542348 
z
" clip-path="url(#p3f4f340359)" style="fill: #808080"/>
   </g>
   <g id="patch_17">
    <path d="M 65.049762 169.94 
L 66.65023 169.94 
L 66.65023 165.211301 
L 65.049762 165.211301 
z
" clip-path="url(#p3f4f340359)" style="fill: #808080"/>
   </g>
   <g id="patch_18">
    <path d="M 66.65023 169.94 
L 68.250699 169.94 
L 68.250699 167.992888 
L 66.65023 167.992888 
z
" clip-path="url(#p3f4f340359)" style="fill: #808080"/>
   </g>
   <g id="patch_19">
    <path d="M 68.250699 169.94 
L 69.851168 169.94 
L 69.851168 167.158412 
L 68.250699 167.158412 
z
" clip-path="url(#p3f4f340359)" style="fill: #808080"/>
   </g>
   <g id="patch_20">
    <path d="M 69.851168 169.94 
L 71.451636 169.94 
L 71.451636 166.880253 
L 69.851168 166.880253 
z
" clip-path="url(#p3f4f340359)" style="fill: #808080"/>
   </g>
   <g id="patch_21">
    <path d="M 71.451636 169.94 
L 73.052105 169.94 
L 73.052105 166.323936 
L 71.451636 166.323936 
z
" clip-path="url(#p3f4f340359)" style="fill: #808080"/>
   </g>
   <g id="patch_22">
    <path d="M 73.052105 169.94 
L 74.652574 169.94 
L 74.652574 166.602095 
L 73.052105 166.602095 
z
" clip-path="url(#p3f4f340359)" style="fill: #808080"/>
   </g>
   <g id="patch_23">
    <path d="M 74.652574 169.94 
L 76.253042 169.94 
L 76.253042 165.211301 
L 74.652574 165.211301 
z
" clip-path="url(#p3f4f340359)" style="fill: #808080"/>
   </g>
   <g id="patch_24">
    <path d="M 76.253042 169.94 
L 77.853511 169.94 
L 77.853511 162.707872 
L 76.253042 162.707872 
z
" clip-path="url(#p3f4f340359)" style="fill: #808080"/>
   </g>
   <g id="patch_25">
    <path d="M 77.853511 169.94 
L 79.45398 169.94 
L 79.45398 160.76076 
L 77.853511 160.76076 
z
" clip-path="url(#p3f4f340359)" style="fill: #808080"/>
   </g>
   <g id="patch_26">
    <path d="M 79.45398 169.94 
L 81.054448 169.94 
L 81.054448 156.032061 
L 79.45398 156.032061 
z
" clip-path="url(#p3f4f340359)" style="fill: #808080"/>
   </g>
   <g id="patch_27">
    <path d="M 81.054448 169.94 
L 82.654917 169.94 
L 82.654917 156.866537 
L 81.054448 156.866537 
z
" clip-path="url(#p3f4f340359)" style="fill: #808080"/>
   </g>
   <g id="patch_28">
    <path d="M 82.654917 169.94 
L 84.255386 169.94 
L 84.255386 154.641267 
L 82.654917 154.641267 
z
" clip-path="url(#p3f4f340359)" style="fill: #808080"/>
   </g>
   <g id="patch_29">
    <path d="M 84.255386 169.94 
L 85.855855 169.94 
L 85.855855 147.965456 
L 84.255386 147.965456 
z
" clip-path="url(#p3f4f340359)" style="fill: #808080"/>
   </g>
   <g id="patch_30">
    <path d="M 85.855855 169.94 
L 87.456323 169.94 
L 87.456323 146.574662 
L 85.855855 146.574662 
z
" clip-path="url(#p3f4f340359)" style="fill: #808080"/>
   </g>
   <g id="patch_31">
    <path d="M 87.456323 169.94 
L 89.056792 169.94 
L 89.056792 136.282787 
L 87.456323 136.282787 
z
" clip-path="url(#p3f4f340359)" style="fill: #808080"/>
   </g>
   <g id="patch_32">
    <path d="M 89.056792 169.94 
L 90.657261 169.94 
L 90.657261 135.726469 
L 89.056792 135.726469 
z
" clip-path="url(#p3f4f340359)" style="fill: #808080"/>
   </g>
   <g id="patch_33">
    <path d="M 90.657261 169.94 
L 92.257729 169.94 
L 92.257729 129.050658 
L 90.657261 129.050658 
z
" clip-path="url(#p3f4f340359)" style="fill: #808080"/>
   </g>
   <g id="patch_34">
    <path d="M 92.257729 169.94 
L 93.858198 169.94 
L 93.858198 129.328817 
L 92.257729 129.328817 
z
" clip-path="url(#p3f4f340359)" style="fill: #808080"/>
   </g>
   <g id="patch_35">
    <path d="M 93.858198 169.94 
L 95.458667 169.94 
L 95.458667 129.885135 
L 93.858198 129.885135 
z
" clip-path="url(#p3f4f340359)" style="fill: #808080"/>
   </g>
   <g id="patch_36">
    <path d="M 95.458667 169.94 
L 97.059135 169.94 
L 97.059135 121.262212 
L 95.458667 121.262212 
z
" clip-path="url(#p3f4f340359)" style="fill: #808080"/>
   </g>
   <g id="patch_37">
    <path d="M 97.059135 169.94 
L 98.659604 169.94 
L 98.659604 116.533513 
L 97.059135 116.533513 
z
" clip-path="url(#p3f4f340359)" style="fill: #808080"/>
   </g>
   <g id="patch_38">
    <path d="M 98.659604 169.94 
L 100.260073 169.94 
L 100.260073 111.248496 
L 98.659604 111.248496 
z
" clip-path="url(#p3f4f340359)" style="fill: #808080"/>
   </g>
   <g id="patch_39">
    <path d="M 100.260073 169.94 
L 101.860541 169.94 
L 101.860541 108.745067 
L 100.260073 108.745067 
z
" clip-path="url(#p3f4f340359)" style="fill: #808080"/>
   </g>
   <g id="patch_40">
    <path d="M 101.860541 169.94 
L 103.46101 169.94 
L 103.46101 114.586401 
L 101.860541 114.586401 
z
" clip-path="url(#p3f4f340359)" style="fill: #808080"/>
   </g>
   <g id="patch_41">
    <path d="M 103.46101 169.94 
L 105.061479 169.94 
L 105.061479 96.227922 
L 103.46101 96.227922 
z
" clip-path="url(#p3f4f340359)" style="fill: #808080"/>
   </g>
   <g id="patch_42">
    <path d="M 105.061479 169.94 
L 106.661947 169.94 
L 106.661947 99.287668 
L 105.061479 99.287668 
z
" clip-path="url(#p3f4f340359)" style="fill: #808080"/>
   </g>
   <g id="patch_43">
    <path d="M 106.661947 169.94 
L 108.262416 169.94 
L 108.262416 85.936046 
L 106.661947 85.936046 
z
" clip-path="url(#p3f4f340359)" style="fill: #808080"/>
   </g>
   <g id="patch_44">
    <path d="M 108.262416 169.94 
L 109.862885 169.94 
L 109.862885 90.386587 
L 108.262416 90.386587 
z
" clip-path="url(#p3f4f340359)" style="fill: #808080"/>
   </g>
   <g id="patch_45">
    <path d="M 109.862885 169.94 
L 111.463354 169.94 
L 111.463354 85.657888 
L 109.862885 85.657888 
z
" clip-path="url(#p3f4f340359)" style="fill: #808080"/>
   </g>
   <g id="patch_46">
    <path d="M 111.463354 169.94 
L 113.063822 169.94 
L 113.063822 87.32684 
L 111.463354 87.32684 
z
" clip-path="url(#p3f4f340359)" style="fill: #808080"/>
   </g>
   <g id="patch_47">
    <path d="M 113.063822 169.94 
L 114.664291 169.94 
L 114.664291 92.611857 
L 113.063822 92.611857 
z
" clip-path="url(#p3f4f340359)" style="fill: #808080"/>
   </g>
   <g id="patch_48">
    <path d="M 114.664291 169.94 
L 116.26476 169.94 
L 116.26476 93.724492 
L 114.664291 93.724492 
z
" clip-path="url(#p3f4f340359)" style="fill: #808080"/>
   </g>
   <g id="patch_49">
    <path d="M 116.26476 169.94 
L 117.865228 169.94 
L 117.865228 82.8763 
L 116.26476 82.8763 
z
" clip-path="url(#p3f4f340359)" style="fill: #808080"/>
   </g>
   <g id="patch_50">
    <path d="M 117.865228 169.94 
L 119.465697 169.94 
L 119.465697 81.207347 
L 117.865228 81.207347 
z
" clip-path="url(#p3f4f340359)" style="fill: #808080"/>
   </g>
   <g id="patch_51">
    <path d="M 119.465697 169.94 
L 121.066166 169.94 
L 121.066166 76.478648 
L 119.465697 76.478648 
z
" clip-path="url(#p3f4f340359)" style="fill: #808080"/>
   </g>
   <g id="patch_52">
    <path d="M 121.066166 169.94 
L 122.666634 169.94 
L 122.666634 70.359154 
L 121.066166 70.359154 
z
" clip-path="url(#p3f4f340359)" style="fill: #808080"/>
   </g>
   <g id="patch_53">
    <path d="M 122.666634 169.94 
L 124.267103 169.94 
L 124.267103 69.246519 
L 122.666634 69.246519 
z
" clip-path="url(#p3f4f340359)" style="fill: #808080"/>
   </g>
   <g id="patch_54">
    <path d="M 124.267103 169.94 
L 125.867572 169.94 
L 125.867572 61.179914 
L 124.267103 61.179914 
z
" clip-path="url(#p3f4f340359)" style="fill: #808080"/>
   </g>
   <g id="patch_55">
    <path d="M 125.867572 169.94 
L 127.46804 169.94 
L 127.46804 45.046705 
L 125.867572 45.046705 
z
" clip-path="url(#p3f4f340359)" style="fill: #808080"/>
   </g>
   <g id="patch_56">
    <path d="M 127.46804 169.94 
L 129.068509 169.94 
L 129.068509 53.391468 
L 127.46804 53.391468 
z
" clip-path="url(#p3f4f340359)" style="fill: #808080"/>
   </g>
   <g id="patch_57">
    <path d="M 129.068509 169.94 
L 130.668978 169.94 
L 130.668978 48.662769 
L 129.068509 48.662769 
z
" clip-path="url(#p3f4f340359)" style="fill: #808080"/>
   </g>
   <g id="patch_58">
    <path d="M 130.668978 169.94 
L 132.269446 169.94 
L 132.269446 38.092735 
L 130.668978 38.092735 
z
" clip-path="url(#p3f4f340359)" style="fill: #808080"/>
   </g>
   <g id="patch_59">
    <path d="M 132.269446 169.94 
L 133.869915 169.94 
L 133.869915 36.423782 
L 132.269446 36.423782 
z
" clip-path="url(#p3f4f340359)" style="fill: #808080"/>
   </g>
   <g id="patch_60">
    <path d="M 133.869915 169.94 
L 135.470384 169.94 
L 135.470384 40.318005 
L 133.869915 40.318005 
z
" clip-path="url(#p3f4f340359)" style="fill: #808080"/>
   </g>
   <g id="patch_61">
    <path d="M 135.470384 169.94 
L 137.070853 169.94 
L 137.070853 40.039847 
L 135.470384 40.039847 
z
" clip-path="url(#p3f4f340359)" style="fill: #808080"/>
   </g>
   <g id="patch_62">
    <path d="M 137.070853 169.94 
L 138.671321 169.94 
L 138.671321 17.230826 
L 137.070853 17.230826 
z
" clip-path="url(#p3f4f340359)" style="fill: #808080"/>
   </g>
   <g id="patch_63">
    <path d="M 138.671321 169.94 
L 140.27179 169.94 
L 140.27179 26.131907 
L 138.671321 26.131907 
z
" clip-path="url(#p3f4f340359)" style="fill: #808080"/>
   </g>
   <g id="patch_64">
    <path d="M 140.27179 169.94 
L 141.872259 169.94 
L 141.872259 18.343461 
L 140.27179 18.343461 
z
" clip-path="url(#p3f4f340359)" style="fill: #808080"/>
   </g>
   <g id="patch_65">
    <path d="M 141.872259 169.94 
L 143.472727 169.94 
L 143.472727 35.032989 
L 141.872259 35.032989 
z
" clip-path="url(#p3f4f340359)" style="fill: #808080"/>
   </g>
   <g id="patch_66">
    <path d="M 143.472727 169.94 
L 145.073196 169.94 
L 145.073196 29.747972 
L 143.472727 29.747972 
z
" clip-path="url(#p3f4f340359)" style="fill: #808080"/>
   </g>
   <g id="patch_67">
    <path d="M 145.073196 169.94 
L 146.673665 169.94 
L 146.673665 26.688225 
L 145.073196 26.688225 
z
" clip-path="url(#p3f4f340359)" style="fill: #808080"/>
   </g>
   <g id="patch_68">
    <path d="M 146.673665 169.94 
L 148.274133 169.94 
L 148.274133 29.747972 
L 146.673665 29.747972 
z
" clip-path="url(#p3f4f340359)" style="fill: #808080"/>
   </g>
   <g id="patch_69">
    <path d="M 148.274133 169.94 
L 149.874602 169.94 
L 149.874602 53.391468 
L 148.274133 53.391468 
z
" clip-path="url(#p3f4f340359)" style="fill: #808080"/>
   </g>
   <g id="patch_70">
    <path d="M 149.874602 169.94 
L 151.475071 169.94 
L 151.475071 39.483529 
L 149.874602 39.483529 
z
" clip-path="url(#p3f4f340359)" style="fill: #808080"/>
   </g>
   <g id="patch_71">
    <path d="M 151.475071 169.94 
L 153.075539 169.94 
L 153.075539 37.536418 
L 151.475071 37.536418 
z
" clip-path="url(#p3f4f340359)" style="fill: #808080"/>
   </g>
   <g id="patch_72">
    <path d="M 153.075539 169.94 
L 154.676008 169.94 
L 154.676008 38.092735 
L 153.075539 38.092735 
z
" clip-path="url(#p3f4f340359)" style="fill: #808080"/>
   </g>
   <g id="patch_73">
    <path d="M 154.676008 169.94 
L 156.276477 169.94 
L 156.276477 27.80086 
L 154.676008 27.80086 
z
" clip-path="url(#p3f4f340359)" style="fill: #808080"/>
   </g>
   <g id="patch_74">
    <path d="M 156.276477 169.94 
L 157.876945 169.94 
L 157.876945 40.039847 
L 156.276477 40.039847 
z
" clip-path="url(#p3f4f340359)" style="fill: #808080"/>
   </g>
   <g id="patch_75">
    <path d="M 157.876945 169.94 
L 159.477414 169.94 
L 159.477414 45.881181 
L 157.876945 45.881181 
z
" clip-path="url(#p3f4f340359)" style="fill: #808080"/>
   </g>
   <g id="patch_76">
    <path d="M 159.477414 169.94 
L 161.077883 169.94 
L 161.077883 83.154459 
L 159.477414 83.154459 
z
" clip-path="url(#p3f4f340359)" style="fill: #808080"/>
   </g>
   <g id="patch_77">
    <path d="M 161.077883 169.94 
L 162.678352 169.94 
L 162.678352 86.770523 
L 161.077883 86.770523 
z
" clip-path="url(#p3f4f340359)" style="fill: #808080"/>
   </g>
   <g id="patch_78">
    <path d="M 162.678352 169.94 
L 164.27882 169.94 
L 164.27882 106.519797 
L 162.678352 106.519797 
z
" clip-path="url(#p3f4f340359)" style="fill: #808080"/>
   </g>
   <g id="patch_79">
    <path d="M 164.27882 169.94 
L 165.879289 169.94 
L 165.879289 112.917449 
L 164.27882 112.917449 
z
" clip-path="url(#p3f4f340359)" style="fill: #808080"/>
   </g>
   <g id="patch_80">
    <path d="M 165.879289 169.94 
L 167.479758 169.94 
L 167.479758 122.931165 
L 165.879289 122.931165 
z
" clip-path="url(#p3f4f340359)" style="fill: #808080"/>
   </g>
   <g id="patch_81">
    <path d="M 167.479758 169.94 
L 169.080226 169.94 
L 169.080226 142.958598 
L 167.479758 142.958598 
z
" clip-path="url(#p3f4f340359)" style="fill: #808080"/>
   </g>
   <g id="patch_82">
    <path d="M 169.080226 169.94 
L 170.680695 169.94 
L 170.680695 140.455169 
L 169.080226 140.455169 
z
" clip-path="url(#p3f4f340359)" style="fill: #808080"/>
   </g>
   <g id="patch_83">
    <path d="M 170.680695 169.94 
L 172.281164 169.94 
L 172.281164 152.137838 
L 170.680695 152.137838 
z
" clip-path="url(#p3f4f340359)" style="fill: #808080"/>
   </g>
   <g id="patch_84">
    <path d="M 172.281164 169.94 
L 173.881632 169.94 
L 173.881632 149.912567 
L 172.281164 149.912567 
z
" clip-path="url(#p3f4f340359)" style="fill: #808080"/>
   </g>
   <g id="patch_85">
    <path d="M 173.881632 169.94 
L 175.482101 169.94 
L 175.482101 153.80679 
L 173.881632 153.80679 
z
" clip-path="url(#p3f4f340359)" style="fill: #808080"/>
   </g>
   <g id="patch_86">
    <path d="M 175.482101 169.94 
L 177.08257 169.94 
L 177.08257 155.753902 
L 175.482101 155.753902 
z
" clip-path="url(#p3f4f340359)" style="fill: #808080"/>
   </g>
   <g id="patch_87">
    <path d="M 177.08257 169.94 
L 178.683038 169.94 
L 178.683038 158.53549 
L 177.08257 158.53549 
z
" clip-path="url(#p3f4f340359)" style="fill: #808080"/>
   </g>
   <g id="patch_88">
    <path d="M 178.683038 169.94 
L 180.283507 169.94 
L 180.283507 159.091807 
L 178.683038 159.091807 
z
" clip-path="url(#p3f4f340359)" style="fill: #808080"/>
   </g>
   <g id="patch_89">
    <path d="M 180.283507 169.94 
L 181.883976 169.94 
L 181.883976 160.204442 
L 180.283507 160.204442 
z
" clip-path="url(#p3f4f340359)" style="fill: #808080"/>
   </g>
   <g id="patch_90">
    <path d="M 181.883976 169.94 
L 183.484444 169.94 
L 183.484444 164.933142 
L 181.883976 164.933142 
z
" clip-path="url(#p3f4f340359)" style="fill: #808080"/>
   </g>
   <g id="patch_91">
    <path d="M 183.484444 169.94 
L 185.084913 169.94 
L 185.084913 159.091807 
L 183.484444 159.091807 
z
" clip-path="url(#p3f4f340359)" style="fill: #808080"/>
   </g>
   <g id="patch_92">
    <path d="M 185.084913 169.94 
L 186.685382 169.94 
L 186.685382 160.204442 
L 185.084913 160.204442 
z
" clip-path="url(#p3f4f340359)" style="fill: #808080"/>
   </g>
   <g id="patch_93">
    <path d="M 186.685382 169.94 
L 188.285851 169.94 
L 188.285851 164.376824 
L 186.685382 164.376824 
z
" clip-path="url(#p3f4f340359)" style="fill: #808080"/>
   </g>
   <g id="patch_94">
    <path d="M 188.285851 169.94 
L 189.886319 169.94 
L 189.886319 164.376824 
L 188.285851 164.376824 
z
" clip-path="url(#p3f4f340359)" style="fill: #808080"/>
   </g>
   <g id="patch_95">
    <path d="M 189.886319 169.94 
L 191.486788 169.94 
L 191.486788 166.045777 
L 189.886319 166.045777 
z
" clip-path="url(#p3f4f340359)" style="fill: #808080"/>
   </g>
   <g id="patch_96">
    <path d="M 191.486788 169.94 
L 193.087257 169.94 
L 193.087257 167.436571 
L 191.486788 167.436571 
z
" clip-path="url(#p3f4f340359)" style="fill: #808080"/>
   </g>
   <g id="patch_97">
    <path d="M 193.087257 169.94 
L 194.687725 169.94 
L 194.687725 166.602095 
L 193.087257 166.602095 
z
" clip-path="url(#p3f4f340359)" style="fill: #808080"/>
   </g>
   <g id="patch_98">
    <path d="M 194.687725 169.94 
L 196.288194 169.94 
L 196.288194 166.323936 
L 194.687725 166.323936 
z
" clip-path="url(#p3f4f340359)" style="fill: #808080"/>
   </g>
   <g id="patch_99">
    <path d="M 196.288194 169.94 
L 197.888663 169.94 
L 197.888663 167.992888 
L 196.288194 167.992888 
z
" clip-path="url(#p3f4f340359)" style="fill: #808080"/>
   </g>
   <g id="patch_100">
    <path d="M 197.888663 169.94 
L 199.489131 169.94 
L 199.489131 168.827365 
L 197.888663 168.827365 
z
" clip-path="url(#p3f4f340359)" style="fill: #808080"/>
   </g>
   <g id="patch_101">
    <path d="M 199.489131 169.94 
L 201.0896 169.94 
L 201.0896 169.661841 
L 199.489131 169.661841 
z
" clip-path="url(#p3f4f340359)" style="fill: #808080"/>
   </g>
   <g id="matplotlib.axis_1">
    <g id="xtick_1">
     <g id="line2d_1">
      <path d="M 44.26 169.94 
L 44.26 4.46 
" clip-path="url(#p3f4f340359)" style="fill: none; stroke: #b0b0b0; stroke-opacity: 0.2; stroke-width: 0.8; stroke-linecap: square"/>
     </g>
     <g id="line2d_2">
      <defs>
       <path id="m3027b45c1d" d="M 0 0 
L 0 3.5 
" style="stroke: #000000; stroke-width: 0.8"/>
      </defs>
      <g>
       <use xlink:href="#m3027b45c1d" x="44.26" y="169.94" style="stroke: #000000; stroke-width: 0.8"/>
      </g>
     </g>
     <g id="text_1">
      <!-- -35 -->
      <g transform="translate(37.595156 183.88375)scale(0.1 -0.1)">
       <defs>
        <path id="TimesNewRomanPSMT-2d" d="M 259 1672 
L 1875 1672 
L 1875 1200 
L 259 1200 
L 259 1672 
z
" transform="scale(0.015625)"/>
        <path id="TimesNewRomanPSMT-33" d="M 325 3431 
Q 506 3859 782 4092 
Q 1059 4325 1472 4325 
Q 1981 4325 2253 3994 
Q 2459 3747 2459 3466 
Q 2459 3003 1878 2509 
Q 2269 2356 2469 2072 
Q 2669 1788 2669 1403 
Q 2669 853 2319 450 
Q 1863 -75 997 -75 
Q 569 -75 414 31 
Q 259 138 259 259 
Q 259 350 332 419 
Q 406 488 509 488 
Q 588 488 669 463 
Q 722 447 909 348 
Q 1097 250 1169 231 
Q 1284 197 1416 197 
Q 1734 197 1970 444 
Q 2206 691 2206 1028 
Q 2206 1275 2097 1509 
Q 2016 1684 1919 1775 
Q 1784 1900 1550 2001 
Q 1316 2103 1072 2103 
L 972 2103 
L 972 2197 
Q 1219 2228 1467 2375 
Q 1716 2522 1828 2728 
Q 1941 2934 1941 3181 
Q 1941 3503 1739 3701 
Q 1538 3900 1238 3900 
Q 753 3900 428 3381 
L 325 3431 
z
" transform="scale(0.015625)"/>
        <path id="TimesNewRomanPSMT-35" d="M 2778 4238 
L 2534 3706 
L 1259 3706 
L 981 3138 
Q 1809 3016 2294 2522 
Q 2709 2097 2709 1522 
Q 2709 1188 2573 903 
Q 2438 619 2231 419 
Q 2025 219 1772 97 
Q 1413 -75 1034 -75 
Q 653 -75 479 54 
Q 306 184 306 341 
Q 306 428 378 495 
Q 450 563 559 563 
Q 641 563 702 538 
Q 763 513 909 409 
Q 1144 247 1384 247 
Q 1750 247 2026 523 
Q 2303 800 2303 1197 
Q 2303 1581 2056 1914 
Q 1809 2247 1375 2428 
Q 1034 2569 447 2591 
L 1259 4238 
L 2778 4238 
z
" transform="scale(0.015625)"/>
       </defs>
       <use xlink:href="#TimesNewRomanPSMT-2d"/>
       <use xlink:href="#TimesNewRomanPSMT-33" x="33.300781"/>
       <use xlink:href="#TimesNewRomanPSMT-35" x="83.300781"/>
      </g>
     </g>
    </g>
    <g id="xtick_2">
     <g id="line2d_3">
      <path d="M 60.428 169.94 
L 60.428 4.46 
" clip-path="url(#p3f4f340359)" style="fill: none; stroke: #b0b0b0; stroke-opacity: 0.2; stroke-width: 0.8; stroke-linecap: square"/>
     </g>
     <g id="line2d_4">
      <g>
       <use xlink:href="#m3027b45c1d" x="60.428" y="169.94" style="stroke: #000000; stroke-width: 0.8"/>
      </g>
     </g>
     <g id="text_2">
      <!-- -30 -->
      <g transform="translate(53.763156 183.88375)scale(0.1 -0.1)">
       <defs>
        <path id="TimesNewRomanPSMT-30" d="M 231 2094 
Q 231 2819 450 3342 
Q 669 3866 1031 4122 
Q 1313 4325 1613 4325 
Q 2100 4325 2488 3828 
Q 2972 3213 2972 2159 
Q 2972 1422 2759 906 
Q 2547 391 2217 158 
Q 1888 -75 1581 -75 
Q 975 -75 572 641 
Q 231 1244 231 2094 
z
M 844 2016 
Q 844 1141 1059 588 
Q 1238 122 1591 122 
Q 1759 122 1940 273 
Q 2122 425 2216 781 
Q 2359 1319 2359 2297 
Q 2359 3022 2209 3506 
Q 2097 3866 1919 4016 
Q 1791 4119 1609 4119 
Q 1397 4119 1231 3928 
Q 1006 3669 925 3112 
Q 844 2556 844 2016 
z
" transform="scale(0.015625)"/>
       </defs>
       <use xlink:href="#TimesNewRomanPSMT-2d"/>
       <use xlink:href="#TimesNewRomanPSMT-33" x="33.300781"/>
       <use xlink:href="#TimesNewRomanPSMT-30" x="83.300781"/>
      </g>
     </g>
    </g>
    <g id="xtick_3">
     <g id="line2d_5">
      <path d="M 76.596 169.94 
L 76.596 4.46 
" clip-path="url(#p3f4f340359)" style="fill: none; stroke: #b0b0b0; stroke-opacity: 0.2; stroke-width: 0.8; stroke-linecap: square"/>
     </g>
     <g id="line2d_6">
      <g>
       <use xlink:href="#m3027b45c1d" x="76.596" y="169.94" style="stroke: #000000; stroke-width: 0.8"/>
      </g>
     </g>
     <g id="text_3">
      <!-- -25 -->
      <g transform="translate(69.931156 183.88375)scale(0.1 -0.1)">
       <defs>
        <path id="TimesNewRomanPSMT-32" d="M 2934 816 
L 2638 0 
L 138 0 
L 138 116 
Q 1241 1122 1691 1759 
Q 2141 2397 2141 2925 
Q 2141 3328 1894 3587 
Q 1647 3847 1303 3847 
Q 991 3847 742 3664 
Q 494 3481 375 3128 
L 259 3128 
Q 338 3706 661 4015 
Q 984 4325 1469 4325 
Q 1984 4325 2329 3994 
Q 2675 3663 2675 3213 
Q 2675 2891 2525 2569 
Q 2294 2063 1775 1497 
Q 997 647 803 472 
L 1909 472 
Q 2247 472 2383 497 
Q 2519 522 2628 598 
Q 2738 675 2819 816 
L 2934 816 
z
" transform="scale(0.015625)"/>
       </defs>
       <use xlink:href="#TimesNewRomanPSMT-2d"/>
       <use xlink:href="#TimesNewRomanPSMT-32" x="33.300781"/>
       <use xlink:href="#TimesNewRomanPSMT-35" x="83.300781"/>
      </g>
     </g>
    </g>
    <g id="xtick_4">
     <g id="line2d_7">
      <path d="M 92.764 169.94 
L 92.764 4.46 
" clip-path="url(#p3f4f340359)" style="fill: none; stroke: #b0b0b0; stroke-opacity: 0.2; stroke-width: 0.8; stroke-linecap: square"/>
     </g>
     <g id="line2d_8">
      <g>
       <use xlink:href="#m3027b45c1d" x="92.764" y="169.94" style="stroke: #000000; stroke-width: 0.8"/>
      </g>
     </g>
     <g id="text_4">
      <!-- -20 -->
      <g transform="translate(86.099156 183.88375)scale(0.1 -0.1)">
       <use xlink:href="#TimesNewRomanPSMT-2d"/>
       <use xlink:href="#TimesNewRomanPSMT-32" x="33.300781"/>
       <use xlink:href="#TimesNewRomanPSMT-30" x="83.300781"/>
      </g>
     </g>
    </g>
    <g id="xtick_5">
     <g id="line2d_9">
      <path d="M 108.932 169.94 
L 108.932 4.46 
" clip-path="url(#p3f4f340359)" style="fill: none; stroke: #b0b0b0; stroke-opacity: 0.2; stroke-width: 0.8; stroke-linecap: square"/>
     </g>
     <g id="line2d_10">
      <g>
       <use xlink:href="#m3027b45c1d" x="108.932" y="169.94" style="stroke: #000000; stroke-width: 0.8"/>
      </g>
     </g>
     <g id="text_5">
      <!-- -15 -->
      <g transform="translate(102.267156 183.88375)scale(0.1 -0.1)">
       <defs>
        <path id="TimesNewRomanPSMT-31" d="M 750 3822 
L 1781 4325 
L 1884 4325 
L 1884 747 
Q 1884 391 1914 303 
Q 1944 216 2037 169 
Q 2131 122 2419 116 
L 2419 0 
L 825 0 
L 825 116 
Q 1125 122 1212 167 
Q 1300 213 1334 289 
Q 1369 366 1369 747 
L 1369 3034 
Q 1369 3497 1338 3628 
Q 1316 3728 1258 3775 
Q 1200 3822 1119 3822 
Q 1003 3822 797 3725 
L 750 3822 
z
" transform="scale(0.015625)"/>
       </defs>
       <use xlink:href="#TimesNewRomanPSMT-2d"/>
       <use xlink:href="#TimesNewRomanPSMT-31" x="33.300781"/>
       <use xlink:href="#TimesNewRomanPSMT-35" x="83.300781"/>
      </g>
     </g>
    </g>
    <g id="xtick_6">
     <g id="line2d_11">
      <path d="M 125.1 169.94 
L 125.1 4.46 
" clip-path="url(#p3f4f340359)" style="fill: none; stroke: #b0b0b0; stroke-opacity: 0.2; stroke-width: 0.8; stroke-linecap: square"/>
     </g>
     <g id="line2d_12">
      <g>
       <use xlink:href="#m3027b45c1d" x="125.1" y="169.94" style="stroke: #000000; stroke-width: 0.8"/>
      </g>
     </g>
     <g id="text_6">
      <!-- -10 -->
      <g transform="translate(118.435156 183.88375)scale(0.1 -0.1)">
       <use xlink:href="#TimesNewRomanPSMT-2d"/>
       <use xlink:href="#TimesNewRomanPSMT-31" x="33.300781"/>
       <use xlink:href="#TimesNewRomanPSMT-30" x="83.300781"/>
      </g>
     </g>
    </g>
    <g id="xtick_7">
     <g id="line2d_13">
      <path d="M 141.268 169.94 
L 141.268 4.46 
" clip-path="url(#p3f4f340359)" style="fill: none; stroke: #b0b0b0; stroke-opacity: 0.2; stroke-width: 0.8; stroke-linecap: square"/>
     </g>
     <g id="line2d_14">
      <g>
       <use xlink:href="#m3027b45c1d" x="141.268" y="169.94" style="stroke: #000000; stroke-width: 0.8"/>
      </g>
     </g>
     <g id="text_7">
      <!-- -5 -->
      <g transform="translate(137.103156 183.88375)scale(0.1 -0.1)">
       <use xlink:href="#TimesNewRomanPSMT-2d"/>
       <use xlink:href="#TimesNewRomanPSMT-35" x="33.300781"/>
      </g>
     </g>
    </g>
    <g id="xtick_8">
     <g id="line2d_15">
      <path d="M 157.436 169.94 
L 157.436 4.46 
" clip-path="url(#p3f4f340359)" style="fill: none; stroke: #b0b0b0; stroke-opacity: 0.2; stroke-width: 0.8; stroke-linecap: square"/>
     </g>
     <g id="line2d_16">
      <g>
       <use xlink:href="#m3027b45c1d" x="157.436" y="169.94" style="stroke: #000000; stroke-width: 0.8"/>
      </g>
     </g>
     <g id="text_8">
      <!-- 0 -->
      <g transform="translate(154.936 183.88375)scale(0.1 -0.1)">
       <use xlink:href="#TimesNewRomanPSMT-30"/>
      </g>
     </g>
    </g>
    <g id="xtick_9">
     <g id="line2d_17">
      <path d="M 173.604 169.94 
L 173.604 4.46 
" clip-path="url(#p3f4f340359)" style="fill: none; stroke: #b0b0b0; stroke-opacity: 0.2; stroke-width: 0.8; stroke-linecap: square"/>
     </g>
     <g id="line2d_18">
      <g>
       <use xlink:href="#m3027b45c1d" x="173.604" y="169.94" style="stroke: #000000; stroke-width: 0.8"/>
      </g>
     </g>
     <g id="text_9">
      <!-- 5 -->
      <g transform="translate(171.104 183.88375)scale(0.1 -0.1)">
       <use xlink:href="#TimesNewRomanPSMT-35"/>
      </g>
     </g>
    </g>
    <g id="xtick_10">
     <g id="line2d_19">
      <path d="M 189.772 169.94 
L 189.772 4.46 
" clip-path="url(#p3f4f340359)" style="fill: none; stroke: #b0b0b0; stroke-opacity: 0.2; stroke-width: 0.8; stroke-linecap: square"/>
     </g>
     <g id="line2d_20">
      <g>
       <use xlink:href="#m3027b45c1d" x="189.772" y="169.94" style="stroke: #000000; stroke-width: 0.8"/>
      </g>
     </g>
     <g id="text_10">
      <!-- 10 -->
      <g transform="translate(184.772 183.88375)scale(0.1 -0.1)">
       <use xlink:href="#TimesNewRomanPSMT-31"/>
       <use xlink:href="#TimesNewRomanPSMT-30" x="50"/>
      </g>
     </g>
    </g>
    <g id="xtick_11">
     <g id="line2d_21">
      <path d="M 205.94 169.94 
L 205.94 4.46 
" clip-path="url(#p3f4f340359)" style="fill: none; stroke: #b0b0b0; stroke-opacity: 0.2; stroke-width: 0.8; stroke-linecap: square"/>
     </g>
     <g id="line2d_22">
      <g>
       <use xlink:href="#m3027b45c1d" x="205.94" y="169.94" style="stroke: #000000; stroke-width: 0.8"/>
      </g>
     </g>
     <g id="text_11">
      <!-- 15 -->
      <g transform="translate(200.94 183.88375)scale(0.1 -0.1)">
       <use xlink:href="#TimesNewRomanPSMT-31"/>
       <use xlink:href="#TimesNewRomanPSMT-35" x="50"/>
      </g>
     </g>
    </g>
    <g id="text_12">
     <!-- Dewpoint temperature [°C] -->
     <g transform="translate(70.341406 196.966563)scale(0.1 -0.1)">
      <defs>
       <path id="TimesNewRomanPSMT-44" d="M 109 0 
L 109 116 
L 269 116 
Q 538 116 650 288 
Q 719 391 719 750 
L 719 3488 
Q 719 3884 631 3984 
Q 509 4122 269 4122 
L 109 4122 
L 109 4238 
L 1834 4238 
Q 2784 4238 3279 4022 
Q 3775 3806 4076 3303 
Q 4378 2800 4378 2141 
Q 4378 1256 3841 663 
Q 3238 0 2003 0 
L 109 0 
z
M 1319 306 
Q 1716 219 1984 219 
Q 2709 219 3187 728 
Q 3666 1238 3666 2109 
Q 3666 2988 3187 3494 
Q 2709 4000 1959 4000 
Q 1678 4000 1319 3909 
L 1319 306 
z
" transform="scale(0.015625)"/>
       <path id="TimesNewRomanPSMT-65" d="M 681 1784 
Q 678 1147 991 784 
Q 1303 422 1725 422 
Q 2006 422 2214 576 
Q 2422 731 2563 1106 
L 2659 1044 
Q 2594 616 2278 264 
Q 1963 -88 1488 -88 
Q 972 -88 605 314 
Q 238 716 238 1394 
Q 238 2128 614 2539 
Q 991 2950 1559 2950 
Q 2041 2950 2350 2633 
Q 2659 2316 2659 1784 
L 681 1784 
z
M 681 1966 
L 2006 1966 
Q 1991 2241 1941 2353 
Q 1863 2528 1708 2628 
Q 1553 2728 1384 2728 
Q 1125 2728 920 2526 
Q 716 2325 681 1966 
z
" transform="scale(0.015625)"/>
       <path id="TimesNewRomanPSMT-77" d="M 41 2863 
L 1241 2863 
L 1241 2747 
Q 1075 2734 1023 2687 
Q 972 2641 972 2553 
Q 972 2456 1025 2319 
L 1638 672 
L 2253 2013 
L 2091 2434 
Q 2016 2622 1894 2694 
Q 1825 2738 1638 2747 
L 1638 2863 
L 3000 2863 
L 3000 2747 
Q 2775 2738 2681 2666 
Q 2619 2616 2619 2506 
Q 2619 2444 2644 2378 
L 3294 734 
L 3897 2319 
Q 3959 2488 3959 2588 
Q 3959 2647 3898 2694 
Q 3838 2741 3659 2747 
L 3659 2863 
L 4563 2863 
L 4563 2747 
Q 4291 2706 4163 2378 
L 3206 -88 
L 3078 -88 
L 2363 1741 
L 1528 -88 
L 1413 -88 
L 494 2319 
Q 403 2547 315 2626 
Q 228 2706 41 2747 
L 41 2863 
z
" transform="scale(0.015625)"/>
       <path id="TimesNewRomanPSMT-70" d="M -6 2578 
L 875 2934 
L 994 2934 
L 994 2266 
Q 1216 2644 1439 2795 
Q 1663 2947 1909 2947 
Q 2341 2947 2628 2609 
Q 2981 2197 2981 1534 
Q 2981 794 2556 309 
Q 2206 -88 1675 -88 
Q 1444 -88 1275 -22 
Q 1150 25 994 166 
L 994 -706 
Q 994 -1000 1030 -1079 
Q 1066 -1159 1155 -1206 
Q 1244 -1253 1478 -1253 
L 1478 -1369 
L -22 -1369 
L -22 -1253 
L 56 -1253 
Q 228 -1256 350 -1188 
Q 409 -1153 442 -1076 
Q 475 -1000 475 -688 
L 475 2019 
Q 475 2297 450 2372 
Q 425 2447 370 2484 
Q 316 2522 222 2522 
Q 147 2522 31 2478 
L -6 2578 
z
M 994 2081 
L 994 1013 
Q 994 666 1022 556 
Q 1066 375 1236 237 
Q 1406 100 1666 100 
Q 1978 100 2172 344 
Q 2425 663 2425 1241 
Q 2425 1897 2138 2250 
Q 1938 2494 1663 2494 
Q 1513 2494 1366 2419 
Q 1253 2363 994 2081 
z
" transform="scale(0.015625)"/>
       <path id="TimesNewRomanPSMT-6f" d="M 1600 2947 
Q 2250 2947 2644 2453 
Q 2978 2031 2978 1484 
Q 2978 1100 2793 706 
Q 2609 313 2286 112 
Q 1963 -88 1566 -88 
Q 919 -88 538 428 
Q 216 863 216 1403 
Q 216 1797 411 2186 
Q 606 2575 925 2761 
Q 1244 2947 1600 2947 
z
M 1503 2744 
Q 1338 2744 1170 2645 
Q 1003 2547 900 2300 
Q 797 2053 797 1666 
Q 797 1041 1045 587 
Q 1294 134 1700 134 
Q 2003 134 2200 384 
Q 2397 634 2397 1244 
Q 2397 2006 2069 2444 
Q 1847 2744 1503 2744 
z
" transform="scale(0.015625)"/>
       <path id="TimesNewRomanPSMT-69" d="M 928 4444 
Q 1059 4444 1151 4351 
Q 1244 4259 1244 4128 
Q 1244 3997 1151 3903 
Q 1059 3809 928 3809 
Q 797 3809 703 3903 
Q 609 3997 609 4128 
Q 609 4259 701 4351 
Q 794 4444 928 4444 
z
M 1188 2947 
L 1188 647 
Q 1188 378 1227 289 
Q 1266 200 1342 156 
Q 1419 113 1622 113 
L 1622 0 
L 231 0 
L 231 113 
Q 441 113 512 153 
Q 584 194 626 287 
Q 669 381 669 647 
L 669 1750 
Q 669 2216 641 2353 
Q 619 2453 572 2492 
Q 525 2531 444 2531 
Q 356 2531 231 2484 
L 188 2597 
L 1050 2947 
L 1188 2947 
z
" transform="scale(0.015625)"/>
       <path id="TimesNewRomanPSMT-6e" d="M 1034 2341 
Q 1538 2947 1994 2947 
Q 2228 2947 2397 2830 
Q 2566 2713 2666 2444 
Q 2734 2256 2734 1869 
L 2734 647 
Q 2734 375 2778 278 
Q 2813 200 2889 156 
Q 2966 113 3172 113 
L 3172 0 
L 1756 0 
L 1756 113 
L 1816 113 
Q 2016 113 2095 173 
Q 2175 234 2206 353 
Q 2219 400 2219 647 
L 2219 1819 
Q 2219 2209 2117 2386 
Q 2016 2563 1775 2563 
Q 1403 2563 1034 2156 
L 1034 647 
Q 1034 356 1069 288 
Q 1113 197 1189 155 
Q 1266 113 1500 113 
L 1500 0 
L 84 0 
L 84 113 
L 147 113 
Q 366 113 442 223 
Q 519 334 519 647 
L 519 1709 
Q 519 2225 495 2337 
Q 472 2450 423 2490 
Q 375 2531 294 2531 
Q 206 2531 84 2484 
L 38 2597 
L 900 2947 
L 1034 2947 
L 1034 2341 
z
" transform="scale(0.015625)"/>
       <path id="TimesNewRomanPSMT-74" d="M 1031 3803 
L 1031 2863 
L 1700 2863 
L 1700 2644 
L 1031 2644 
L 1031 788 
Q 1031 509 1111 412 
Q 1191 316 1316 316 
Q 1419 316 1516 380 
Q 1613 444 1666 569 
L 1788 569 
Q 1678 263 1478 108 
Q 1278 -47 1066 -47 
Q 922 -47 784 33 
Q 647 113 581 261 
Q 516 409 516 719 
L 516 2644 
L 63 2644 
L 63 2747 
Q 234 2816 414 2980 
Q 594 3144 734 3369 
Q 806 3488 934 3803 
L 1031 3803 
z
" transform="scale(0.015625)"/>
       <path id="TimesNewRomanPSMT-20" transform="scale(0.015625)"/>
       <path id="TimesNewRomanPSMT-6d" d="M 1050 2338 
Q 1363 2650 1419 2697 
Q 1559 2816 1721 2881 
Q 1884 2947 2044 2947 
Q 2313 2947 2506 2790 
Q 2700 2634 2766 2338 
Q 3088 2713 3309 2830 
Q 3531 2947 3766 2947 
Q 3994 2947 4170 2830 
Q 4347 2713 4450 2447 
Q 4519 2266 4519 1878 
L 4519 647 
Q 4519 378 4559 278 
Q 4591 209 4675 161 
Q 4759 113 4950 113 
L 4950 0 
L 3538 0 
L 3538 113 
L 3597 113 
Q 3781 113 3884 184 
Q 3956 234 3988 344 
Q 4000 397 4000 647 
L 4000 1878 
Q 4000 2228 3916 2372 
Q 3794 2572 3525 2572 
Q 3359 2572 3192 2489 
Q 3025 2406 2788 2181 
L 2781 2147 
L 2788 2013 
L 2788 647 
Q 2788 353 2820 281 
Q 2853 209 2943 161 
Q 3034 113 3253 113 
L 3253 0 
L 1806 0 
L 1806 113 
Q 2044 113 2133 169 
Q 2222 225 2256 338 
Q 2272 391 2272 647 
L 2272 1878 
Q 2272 2228 2169 2381 
Q 2031 2581 1784 2581 
Q 1616 2581 1450 2491 
Q 1191 2353 1050 2181 
L 1050 647 
Q 1050 366 1089 281 
Q 1128 197 1204 155 
Q 1281 113 1516 113 
L 1516 0 
L 100 0 
L 100 113 
Q 297 113 375 155 
Q 453 197 493 289 
Q 534 381 534 647 
L 534 1741 
Q 534 2213 506 2350 
Q 484 2453 437 2492 
Q 391 2531 309 2531 
Q 222 2531 100 2484 
L 53 2597 
L 916 2947 
L 1050 2947 
L 1050 2338 
z
" transform="scale(0.015625)"/>
       <path id="TimesNewRomanPSMT-72" d="M 1038 2947 
L 1038 2303 
Q 1397 2947 1775 2947 
Q 1947 2947 2059 2842 
Q 2172 2738 2172 2600 
Q 2172 2478 2090 2393 
Q 2009 2309 1897 2309 
Q 1788 2309 1652 2417 
Q 1516 2525 1450 2525 
Q 1394 2525 1328 2463 
Q 1188 2334 1038 2041 
L 1038 669 
Q 1038 431 1097 309 
Q 1138 225 1241 169 
Q 1344 113 1538 113 
L 1538 0 
L 72 0 
L 72 113 
Q 291 113 397 181 
Q 475 231 506 341 
Q 522 394 522 644 
L 522 1753 
Q 522 2253 501 2348 
Q 481 2444 426 2487 
Q 372 2531 291 2531 
Q 194 2531 72 2484 
L 41 2597 
L 906 2947 
L 1038 2947 
z
" transform="scale(0.015625)"/>
       <path id="TimesNewRomanPSMT-61" d="M 1822 413 
Q 1381 72 1269 19 
Q 1100 -59 909 -59 
Q 613 -59 420 144 
Q 228 347 228 678 
Q 228 888 322 1041 
Q 450 1253 767 1440 
Q 1084 1628 1822 1897 
L 1822 2009 
Q 1822 2438 1686 2597 
Q 1550 2756 1291 2756 
Q 1094 2756 978 2650 
Q 859 2544 859 2406 
L 866 2225 
Q 866 2081 792 2003 
Q 719 1925 600 1925 
Q 484 1925 411 2006 
Q 338 2088 338 2228 
Q 338 2497 613 2722 
Q 888 2947 1384 2947 
Q 1766 2947 2009 2819 
Q 2194 2722 2281 2516 
Q 2338 2381 2338 1966 
L 2338 994 
Q 2338 584 2353 492 
Q 2369 400 2405 369 
Q 2441 338 2488 338 
Q 2538 338 2575 359 
Q 2641 400 2828 588 
L 2828 413 
Q 2478 -56 2159 -56 
Q 2006 -56 1915 50 
Q 1825 156 1822 413 
z
M 1822 616 
L 1822 1706 
Q 1350 1519 1213 1441 
Q 966 1303 859 1153 
Q 753 1003 753 825 
Q 753 600 887 451 
Q 1022 303 1197 303 
Q 1434 303 1822 616 
z
" transform="scale(0.015625)"/>
       <path id="TimesNewRomanPSMT-75" d="M 2709 2863 
L 2709 1128 
Q 2709 631 2732 520 
Q 2756 409 2807 365 
Q 2859 322 2928 322 
Q 3025 322 3147 375 
L 3191 266 
L 2334 -88 
L 2194 -88 
L 2194 519 
Q 1825 119 1631 15 
Q 1438 -88 1222 -88 
Q 981 -88 804 51 
Q 628 191 559 409 
Q 491 628 491 1028 
L 491 2306 
Q 491 2509 447 2587 
Q 403 2666 317 2708 
Q 231 2750 6 2747 
L 6 2863 
L 1009 2863 
L 1009 947 
Q 1009 547 1148 422 
Q 1288 297 1484 297 
Q 1619 297 1789 381 
Q 1959 466 2194 703 
L 2194 2325 
Q 2194 2569 2105 2655 
Q 2016 2741 1734 2747 
L 1734 2863 
L 2709 2863 
z
" transform="scale(0.015625)"/>
       <path id="TimesNewRomanPSMT-5b" d="M 1900 -1269 
L 525 -1269 
L 525 4334 
L 1900 4334 
L 1900 4088 
L 994 4088 
L 994 -1025 
L 1900 -1025 
L 1900 -1269 
z
" transform="scale(0.015625)"/>
       <path id="TimesNewRomanPSMT-b0" d="M 1266 4331 
Q 1669 4331 1948 4050 
Q 2228 3769 2228 3369 
Q 2228 2972 1947 2690 
Q 1666 2409 1266 2409 
Q 869 2409 587 2690 
Q 306 2972 306 3369 
Q 306 3769 586 4050 
Q 866 4331 1266 4331 
z
M 1266 4069 
Q 975 4069 772 3866 
Q 569 3663 569 3372 
Q 569 3084 772 2879 
Q 975 2675 1266 2675 
Q 1553 2675 1758 2879 
Q 1963 3084 1963 3372 
Q 1963 3663 1759 3866 
Q 1556 4069 1266 4069 
z
" transform="scale(0.015625)"/>
       <path id="TimesNewRomanPSMT-43" d="M 3853 4334 
L 3950 2894 
L 3853 2894 
Q 3659 3541 3300 3825 
Q 2941 4109 2438 4109 
Q 2016 4109 1675 3895 
Q 1334 3681 1139 3212 
Q 944 2744 944 2047 
Q 944 1472 1128 1050 
Q 1313 628 1683 403 
Q 2053 178 2528 178 
Q 2941 178 3256 354 
Q 3572 531 3950 1056 
L 4047 994 
Q 3728 428 3303 165 
Q 2878 -97 2294 -97 
Q 1241 -97 663 684 
Q 231 1266 231 2053 
Q 231 2688 515 3219 
Q 800 3750 1298 4042 
Q 1797 4334 2388 4334 
Q 2847 4334 3294 4109 
Q 3425 4041 3481 4041 
Q 3566 4041 3628 4100 
Q 3709 4184 3744 4334 
L 3853 4334 
z
" transform="scale(0.015625)"/>
       <path id="TimesNewRomanPSMT-5d" d="M 234 4334 
L 1609 4334 
L 1609 -1272 
L 234 -1272 
L 234 -1025 
L 1141 -1025 
L 1141 4088 
L 234 4088 
L 234 4334 
z
" transform="scale(0.015625)"/>
      </defs>
      <use xlink:href="#TimesNewRomanPSMT-44"/>
      <use xlink:href="#TimesNewRomanPSMT-65" x="72.216797"/>
      <use xlink:href="#TimesNewRomanPSMT-77" x="116.601562"/>
      <use xlink:href="#TimesNewRomanPSMT-70" x="188.818359"/>
      <use xlink:href="#TimesNewRomanPSMT-6f" x="238.818359"/>
      <use xlink:href="#TimesNewRomanPSMT-69" x="288.818359"/>
      <use xlink:href="#TimesNewRomanPSMT-6e" x="316.601562"/>
      <use xlink:href="#TimesNewRomanPSMT-74" x="366.601562"/>
      <use xlink:href="#TimesNewRomanPSMT-20" x="394.384766"/>
      <use xlink:href="#TimesNewRomanPSMT-74" x="419.384766"/>
      <use xlink:href="#TimesNewRomanPSMT-65" x="447.167969"/>
      <use xlink:href="#TimesNewRomanPSMT-6d" x="491.552734"/>
      <use xlink:href="#TimesNewRomanPSMT-70" x="569.335938"/>
      <use xlink:href="#TimesNewRomanPSMT-65" x="619.335938"/>
      <use xlink:href="#TimesNewRomanPSMT-72" x="663.720703"/>
      <use xlink:href="#TimesNewRomanPSMT-61" x="697.021484"/>
      <use xlink:href="#TimesNewRomanPSMT-74" x="741.40625"/>
      <use xlink:href="#TimesNewRomanPSMT-75" x="769.189453"/>
      <use xlink:href="#TimesNewRomanPSMT-72" x="819.189453"/>
      <use xlink:href="#TimesNewRomanPSMT-65" x="852.490234"/>
      <use xlink:href="#TimesNewRomanPSMT-20" x="896.875"/>
      <use xlink:href="#TimesNewRomanPSMT-5b" x="921.875"/>
      <use xlink:href="#TimesNewRomanPSMT-b0" x="955.175781"/>
      <use xlink:href="#TimesNewRomanPSMT-43" x="995.166016"/>
      <use xlink:href="#TimesNewRomanPSMT-5d" x="1061.865234"/>
     </g>
    </g>
   </g>
   <g id="matplotlib.axis_2">
    <g id="ytick_1">
     <g id="line2d_23">
      <path d="M 44.26 169.94 
L 205.94 169.94 
" clip-path="url(#p3f4f340359)" style="fill: none; stroke: #b0b0b0; stroke-opacity: 0.2; stroke-width: 0.8; stroke-linecap: square"/>
     </g>
     <g id="line2d_24">
      <defs>
       <path id="m68b730de8c" d="M 0 0 
L -3.5 0 
" style="stroke: #000000; stroke-width: 0.8"/>
      </defs>
      <g>
       <use xlink:href="#m68b730de8c" x="44.26" y="169.94" style="stroke: #000000; stroke-width: 0.8"/>
      </g>
     </g>
     <g id="text_13">
      <!-- 0.0 -->
      <g transform="translate(24.76 173.411875)scale(0.1 -0.1)">
       <defs>
        <path id="TimesNewRomanPSMT-2e" d="M 800 606 
Q 947 606 1047 504 
Q 1147 403 1147 259 
Q 1147 116 1045 14 
Q 944 -88 800 -88 
Q 656 -88 554 14 
Q 453 116 453 259 
Q 453 406 554 506 
Q 656 606 800 606 
z
" transform="scale(0.015625)"/>
       </defs>
       <use xlink:href="#TimesNewRomanPSMT-30"/>
       <use xlink:href="#TimesNewRomanPSMT-2e" x="50"/>
       <use xlink:href="#TimesNewRomanPSMT-30" x="75"/>
      </g>
     </g>
    </g>
    <g id="ytick_2">
     <g id="line2d_25">
      <path d="M 44.26 149.255 
L 205.94 149.255 
" clip-path="url(#p3f4f340359)" style="fill: none; stroke: #b0b0b0; stroke-opacity: 0.2; stroke-width: 0.8; stroke-linecap: square"/>
     </g>
     <g id="line2d_26">
      <g>
       <use xlink:href="#m68b730de8c" x="44.26" y="149.255" style="stroke: #000000; stroke-width: 0.8"/>
      </g>
     </g>
     <g id="text_14">
      <!-- 0.004 -->
      <g transform="translate(14.76 152.726875)scale(0.1 -0.1)">
       <defs>
        <path id="TimesNewRomanPSMT-34" d="M 2978 1563 
L 2978 1119 
L 2409 1119 
L 2409 0 
L 1894 0 
L 1894 1119 
L 100 1119 
L 100 1519 
L 2066 4325 
L 2409 4325 
L 2409 1563 
L 2978 1563 
z
M 1894 1563 
L 1894 3666 
L 406 1563 
L 1894 1563 
z
" transform="scale(0.015625)"/>
       </defs>
       <use xlink:href="#TimesNewRomanPSMT-30"/>
       <use xlink:href="#TimesNewRomanPSMT-2e" x="50"/>
       <use xlink:href="#TimesNewRomanPSMT-30" x="75"/>
       <use xlink:href="#TimesNewRomanPSMT-30" x="125"/>
       <use xlink:href="#TimesNewRomanPSMT-34" x="175"/>
      </g>
     </g>
    </g>
    <g id="ytick_3">
     <g id="line2d_27">
      <path d="M 44.26 128.57 
L 205.94 128.57 
" clip-path="url(#p3f4f340359)" style="fill: none; stroke: #b0b0b0; stroke-opacity: 0.2; stroke-width: 0.8; stroke-linecap: square"/>
     </g>
     <g id="line2d_28">
      <g>
       <use xlink:href="#m68b730de8c" x="44.26" y="128.57" style="stroke: #000000; stroke-width: 0.8"/>
      </g>
     </g>
     <g id="text_15">
      <!-- 0.008 -->
      <g transform="translate(14.76 132.041875)scale(0.1 -0.1)">
       <defs>
        <path id="TimesNewRomanPSMT-38" d="M 1228 2134 
Q 725 2547 579 2797 
Q 434 3047 434 3316 
Q 434 3728 753 4026 
Q 1072 4325 1600 4325 
Q 2113 4325 2425 4047 
Q 2738 3769 2738 3413 
Q 2738 3175 2569 2928 
Q 2400 2681 1866 2347 
Q 2416 1922 2594 1678 
Q 2831 1359 2831 1006 
Q 2831 559 2490 242 
Q 2150 -75 1597 -75 
Q 994 -75 656 303 
Q 388 606 388 966 
Q 388 1247 577 1523 
Q 766 1800 1228 2134 
z
M 1719 2469 
Q 2094 2806 2194 3001 
Q 2294 3197 2294 3444 
Q 2294 3772 2109 3958 
Q 1925 4144 1606 4144 
Q 1288 4144 1088 3959 
Q 888 3775 888 3528 
Q 888 3366 970 3203 
Q 1053 3041 1206 2894 
L 1719 2469 
z
M 1375 2016 
Q 1116 1797 991 1539 
Q 866 1281 866 981 
Q 866 578 1086 336 
Q 1306 94 1647 94 
Q 1984 94 2187 284 
Q 2391 475 2391 747 
Q 2391 972 2272 1150 
Q 2050 1481 1375 2016 
z
" transform="scale(0.015625)"/>
       </defs>
       <use xlink:href="#TimesNewRomanPSMT-30"/>
       <use xlink:href="#TimesNewRomanPSMT-2e" x="50"/>
       <use xlink:href="#TimesNewRomanPSMT-30" x="75"/>
       <use xlink:href="#TimesNewRomanPSMT-30" x="125"/>
       <use xlink:href="#TimesNewRomanPSMT-38" x="175"/>
      </g>
     </g>
    </g>
    <g id="ytick_4">
     <g id="line2d_29">
      <path d="M 44.26 107.885 
L 205.94 107.885 
" clip-path="url(#p3f4f340359)" style="fill: none; stroke: #b0b0b0; stroke-opacity: 0.2; stroke-width: 0.8; stroke-linecap: square"/>
     </g>
     <g id="line2d_30">
      <g>
       <use xlink:href="#m68b730de8c" x="44.26" y="107.885" style="stroke: #000000; stroke-width: 0.8"/>
      </g>
     </g>
     <g id="text_16">
      <!-- 0.012 -->
      <g transform="translate(14.76 111.356875)scale(0.1 -0.1)">
       <use xlink:href="#TimesNewRomanPSMT-30"/>
       <use xlink:href="#TimesNewRomanPSMT-2e" x="50"/>
       <use xlink:href="#TimesNewRomanPSMT-30" x="75"/>
       <use xlink:href="#TimesNewRomanPSMT-31" x="125"/>
       <use xlink:href="#TimesNewRomanPSMT-32" x="175"/>
      </g>
     </g>
    </g>
    <g id="ytick_5">
     <g id="line2d_31">
      <path d="M 44.26 87.2 
L 205.94 87.2 
" clip-path="url(#p3f4f340359)" style="fill: none; stroke: #b0b0b0; stroke-opacity: 0.2; stroke-width: 0.8; stroke-linecap: square"/>
     </g>
     <g id="line2d_32">
      <g>
       <use xlink:href="#m68b730de8c" x="44.26" y="87.2" style="stroke: #000000; stroke-width: 0.8"/>
      </g>
     </g>
     <g id="text_17">
      <!-- 0.016 -->
      <g transform="translate(14.76 90.671875)scale(0.1 -0.1)">
       <defs>
        <path id="TimesNewRomanPSMT-36" d="M 2869 4325 
L 2869 4209 
Q 2456 4169 2195 4045 
Q 1934 3922 1679 3669 
Q 1425 3416 1258 3105 
Q 1091 2794 978 2366 
Q 1428 2675 1881 2675 
Q 2316 2675 2634 2325 
Q 2953 1975 2953 1425 
Q 2953 894 2631 456 
Q 2244 -75 1606 -75 
Q 1172 -75 869 213 
Q 275 772 275 1663 
Q 275 2231 503 2743 
Q 731 3256 1154 3653 
Q 1578 4050 1965 4187 
Q 2353 4325 2688 4325 
L 2869 4325 
z
M 925 2138 
Q 869 1716 869 1456 
Q 869 1156 980 804 
Q 1091 453 1309 247 
Q 1469 100 1697 100 
Q 1969 100 2183 356 
Q 2397 613 2397 1088 
Q 2397 1622 2184 2012 
Q 1972 2403 1581 2403 
Q 1463 2403 1327 2353 
Q 1191 2303 925 2138 
z
" transform="scale(0.015625)"/>
       </defs>
       <use xlink:href="#TimesNewRomanPSMT-30"/>
       <use xlink:href="#TimesNewRomanPSMT-2e" x="50"/>
       <use xlink:href="#TimesNewRomanPSMT-30" x="75"/>
       <use xlink:href="#TimesNewRomanPSMT-31" x="125"/>
       <use xlink:href="#TimesNewRomanPSMT-36" x="175"/>
      </g>
     </g>
    </g>
    <g id="ytick_6">
     <g id="line2d_33">
      <path d="M 44.26 66.515 
L 205.94 66.515 
" clip-path="url(#p3f4f340359)" style="fill: none; stroke: #b0b0b0; stroke-opacity: 0.2; stroke-width: 0.8; stroke-linecap: square"/>
     </g>
     <g id="line2d_34">
      <g>
       <use xlink:href="#m68b730de8c" x="44.26" y="66.515" style="stroke: #000000; stroke-width: 0.8"/>
      </g>
     </g>
     <g id="text_18">
      <!-- 0.02 -->
      <g transform="translate(19.76 69.986875)scale(0.1 -0.1)">
       <use xlink:href="#TimesNewRomanPSMT-30"/>
       <use xlink:href="#TimesNewRomanPSMT-2e" x="50"/>
       <use xlink:href="#TimesNewRomanPSMT-30" x="75"/>
       <use xlink:href="#TimesNewRomanPSMT-32" x="125"/>
      </g>
     </g>
    </g>
    <g id="ytick_7">
     <g id="line2d_35">
      <path d="M 44.26 45.83 
L 205.94 45.83 
" clip-path="url(#p3f4f340359)" style="fill: none; stroke: #b0b0b0; stroke-opacity: 0.2; stroke-width: 0.8; stroke-linecap: square"/>
     </g>
     <g id="line2d_36">
      <g>
       <use xlink:href="#m68b730de8c" x="44.26" y="45.83" style="stroke: #000000; stroke-width: 0.8"/>
      </g>
     </g>
     <g id="text_19">
      <!-- 0.024 -->
      <g transform="translate(14.76 49.301875)scale(0.1 -0.1)">
       <use xlink:href="#TimesNewRomanPSMT-30"/>
       <use xlink:href="#TimesNewRomanPSMT-2e" x="50"/>
       <use xlink:href="#TimesNewRomanPSMT-30" x="75"/>
       <use xlink:href="#TimesNewRomanPSMT-32" x="125"/>
       <use xlink:href="#TimesNewRomanPSMT-34" x="175"/>
      </g>
     </g>
    </g>
    <g id="ytick_8">
     <g id="line2d_37">
      <path d="M 44.26 25.145 
L 205.94 25.145 
" clip-path="url(#p3f4f340359)" style="fill: none; stroke: #b0b0b0; stroke-opacity: 0.2; stroke-width: 0.8; stroke-linecap: square"/>
     </g>
     <g id="line2d_38">
      <g>
       <use xlink:href="#m68b730de8c" x="44.26" y="25.145" style="stroke: #000000; stroke-width: 0.8"/>
      </g>
     </g>
     <g id="text_20">
      <!-- 0.028 -->
      <g transform="translate(14.76 28.616875)scale(0.1 -0.1)">
       <use xlink:href="#TimesNewRomanPSMT-30"/>
       <use xlink:href="#TimesNewRomanPSMT-2e" x="50"/>
       <use xlink:href="#TimesNewRomanPSMT-30" x="75"/>
       <use xlink:href="#TimesNewRomanPSMT-32" x="125"/>
       <use xlink:href="#TimesNewRomanPSMT-38" x="175"/>
      </g>
     </g>
    </g>
    <g id="ytick_9">
     <g id="line2d_39">
      <path d="M 44.26 4.46 
L 205.94 4.46 
" clip-path="url(#p3f4f340359)" style="fill: none; stroke: #b0b0b0; stroke-opacity: 0.2; stroke-width: 0.8; stroke-linecap: square"/>
     </g>
     <g id="line2d_40">
      <g>
       <use xlink:href="#m68b730de8c" x="44.26" y="4.46" style="stroke: #000000; stroke-width: 0.8"/>
      </g>
     </g>
     <g id="text_21">
      <!-- 0.032 -->
      <g transform="translate(14.76 7.931875)scale(0.1 -0.1)">
       <use xlink:href="#TimesNewRomanPSMT-30"/>
       <use xlink:href="#TimesNewRomanPSMT-2e" x="50"/>
       <use xlink:href="#TimesNewRomanPSMT-30" x="75"/>
       <use xlink:href="#TimesNewRomanPSMT-33" x="125"/>
       <use xlink:href="#TimesNewRomanPSMT-32" x="175"/>
      </g>
     </g>
    </g>
    <g id="text_22">
     <!-- Probability -->
     <g transform="translate(8.602188 109.421094)rotate(-90)scale(0.1 -0.1)">
      <defs>
       <path id="TimesNewRomanPSMT-50" d="M 1313 1984 
L 1313 750 
Q 1313 350 1400 253 
Q 1519 116 1759 116 
L 1922 116 
L 1922 0 
L 106 0 
L 106 116 
L 266 116 
Q 534 116 650 291 
Q 713 388 713 750 
L 713 3488 
Q 713 3888 628 3984 
Q 506 4122 266 4122 
L 106 4122 
L 106 4238 
L 1659 4238 
Q 2228 4238 2556 4120 
Q 2884 4003 3109 3725 
Q 3334 3447 3334 3066 
Q 3334 2547 2992 2222 
Q 2650 1897 2025 1897 
Q 1872 1897 1694 1919 
Q 1516 1941 1313 1984 
z
M 1313 2163 
Q 1478 2131 1606 2115 
Q 1734 2100 1825 2100 
Q 2150 2100 2386 2351 
Q 2622 2603 2622 3003 
Q 2622 3278 2509 3514 
Q 2397 3750 2190 3867 
Q 1984 3984 1722 3984 
Q 1563 3984 1313 3925 
L 1313 2163 
z
" transform="scale(0.015625)"/>
       <path id="TimesNewRomanPSMT-62" d="M 984 2369 
Q 1400 2947 1881 2947 
Q 2322 2947 2650 2570 
Q 2978 2194 2978 1541 
Q 2978 778 2472 313 
Q 2038 -88 1503 -88 
Q 1253 -88 995 3 
Q 738 94 469 275 
L 469 3241 
Q 469 3728 445 3840 
Q 422 3953 372 3993 
Q 322 4034 247 4034 
Q 159 4034 28 3984 
L -16 4094 
L 844 4444 
L 984 4444 
L 984 2369 
z
M 984 2169 
L 984 456 
Q 1144 300 1314 220 
Q 1484 141 1663 141 
Q 1947 141 2192 453 
Q 2438 766 2438 1363 
Q 2438 1913 2192 2208 
Q 1947 2503 1634 2503 
Q 1469 2503 1303 2419 
Q 1178 2356 984 2169 
z
" transform="scale(0.015625)"/>
       <path id="TimesNewRomanPSMT-6c" d="M 1184 4444 
L 1184 647 
Q 1184 378 1223 290 
Q 1263 203 1344 158 
Q 1425 113 1647 113 
L 1647 0 
L 244 0 
L 244 113 
Q 441 113 512 153 
Q 584 194 625 287 
Q 666 381 666 647 
L 666 3247 
Q 666 3731 644 3842 
Q 622 3953 573 3993 
Q 525 4034 450 4034 
Q 369 4034 244 3984 
L 191 4094 
L 1044 4444 
L 1184 4444 
z
" transform="scale(0.015625)"/>
       <path id="TimesNewRomanPSMT-79" d="M 38 2863 
L 1372 2863 
L 1372 2747 
L 1306 2747 
Q 1166 2747 1095 2686 
Q 1025 2625 1025 2534 
Q 1025 2413 1128 2197 
L 1825 753 
L 2466 2334 
Q 2519 2463 2519 2588 
Q 2519 2644 2497 2672 
Q 2472 2706 2419 2726 
Q 2366 2747 2231 2747 
L 2231 2863 
L 3163 2863 
L 3163 2747 
Q 3047 2734 2984 2696 
Q 2922 2659 2847 2556 
Q 2819 2513 2741 2316 
L 1575 -541 
Q 1406 -956 1132 -1168 
Q 859 -1381 606 -1381 
Q 422 -1381 303 -1275 
Q 184 -1169 184 -1031 
Q 184 -900 270 -820 
Q 356 -741 506 -741 
Q 609 -741 788 -809 
Q 913 -856 944 -856 
Q 1038 -856 1148 -759 
Q 1259 -663 1372 -384 
L 1575 113 
L 547 2272 
Q 500 2369 397 2513 
Q 319 2622 269 2659 
Q 197 2709 38 2747 
L 38 2863 
z
" transform="scale(0.015625)"/>
      </defs>
      <use xlink:href="#TimesNewRomanPSMT-50"/>
      <use xlink:href="#TimesNewRomanPSMT-72" x="55.615234"/>
      <use xlink:href="#TimesNewRomanPSMT-6f" x="88.916016"/>
      <use xlink:href="#TimesNewRomanPSMT-62" x="138.916016"/>
      <use xlink:href="#TimesNewRomanPSMT-61" x="188.916016"/>
      <use xlink:href="#TimesNewRomanPSMT-62" x="233.300781"/>
      <use xlink:href="#TimesNewRomanPSMT-69" x="283.300781"/>
      <use xlink:href="#TimesNewRomanPSMT-6c" x="311.083984"/>
      <use xlink:href="#TimesNewRomanPSMT-69" x="338.867188"/>
      <use xlink:href="#TimesNewRomanPSMT-74" x="366.650391"/>
      <use xlink:href="#TimesNewRomanPSMT-79" x="394.433594"/>
     </g>
    </g>
   </g>
   <g id="patch_102">
    <path d="M 44.26 169.94 
L 44.26 4.46 
" style="fill: none; stroke: #000000; stroke-width: 0.8; stroke-linejoin: miter; stroke-linecap: square"/>
   </g>
   <g id="patch_103">
    <path d="M 205.94 169.94 
L 205.94 4.46 
" style="fill: none; stroke: #000000; stroke-width: 0.8; stroke-linejoin: miter; stroke-linecap: square"/>
   </g>
   <g id="patch_104">
    <path d="M 44.26 169.94 
L 205.94 169.94 
" style="fill: none; stroke: #000000; stroke-width: 0.8; stroke-linejoin: miter; stroke-linecap: square"/>
   </g>
   <g id="patch_105">
    <path d="M 44.26 4.46 
L 205.94 4.46 
" style="fill: none; stroke: #000000; stroke-width: 0.8; stroke-linejoin: miter; stroke-linecap: square"/>
   </g>
  </g>
  <g id="axes_2">
   <g id="matplotlib.axis_3">
    <g id="ytick_10">
     <g id="line2d_41">
      <defs>
       <path id="mb9ffca0fab" d="M 0 0 
L 3.5 0 
" style="stroke: #000000; stroke-width: 0.8"/>
      </defs>
      <g>
       <use xlink:href="#mb9ffca0fab" x="205.94" y="169.94" style="stroke: #000000; stroke-width: 0.8"/>
      </g>
     </g>
     <g id="text_23">
      <!-- 0 -->
      <g style="fill: #0000ff" transform="translate(212.94 173.411875)scale(0.1 -0.1)">
       <use xlink:href="#TimesNewRomanPSMT-30"/>
      </g>
     </g>
    </g>
    <g id="ytick_11">
     <g id="line2d_42">
      <g>
       <use xlink:href="#mb9ffca0fab" x="205.94" y="149.255" style="stroke: #000000; stroke-width: 0.8"/>
      </g>
     </g>
     <g id="text_24">
      <!-- 3 -->
      <g style="fill: #0000ff" transform="translate(212.94 152.726875)scale(0.1 -0.1)">
       <use xlink:href="#TimesNewRomanPSMT-33"/>
      </g>
     </g>
    </g>
    <g id="ytick_12">
     <g id="line2d_43">
      <g>
       <use xlink:href="#mb9ffca0fab" x="205.94" y="128.57" style="stroke: #000000; stroke-width: 0.8"/>
      </g>
     </g>
     <g id="text_25">
      <!-- 6 -->
      <g style="fill: #0000ff" transform="translate(212.94 132.041875)scale(0.1 -0.1)">
       <use xlink:href="#TimesNewRomanPSMT-36"/>
      </g>
     </g>
    </g>
    <g id="ytick_13">
     <g id="line2d_44">
      <g>
       <use xlink:href="#mb9ffca0fab" x="205.94" y="107.885" style="stroke: #000000; stroke-width: 0.8"/>
      </g>
     </g>
     <g id="text_26">
      <!-- 9 -->
      <g style="fill: #0000ff" transform="translate(212.94 111.356875)scale(0.1 -0.1)">
       <defs>
        <path id="TimesNewRomanPSMT-39" d="M 338 -88 
L 338 28 
Q 744 34 1094 217 
Q 1444 400 1770 856 
Q 2097 1313 2225 1859 
Q 1734 1544 1338 1544 
Q 891 1544 572 1889 
Q 253 2234 253 2806 
Q 253 3363 572 3797 
Q 956 4325 1575 4325 
Q 2097 4325 2469 3894 
Q 2925 3359 2925 2575 
Q 2925 1869 2578 1258 
Q 2231 647 1613 244 
Q 1109 -88 516 -88 
L 338 -88 
z
M 2275 2091 
Q 2331 2497 2331 2741 
Q 2331 3044 2228 3395 
Q 2125 3747 1936 3934 
Q 1747 4122 1506 4122 
Q 1228 4122 1018 3872 
Q 809 3622 809 3128 
Q 809 2469 1088 2097 
Q 1291 1828 1588 1828 
Q 1731 1828 1928 1897 
Q 2125 1966 2275 2091 
z
" transform="scale(0.015625)"/>
       </defs>
       <use xlink:href="#TimesNewRomanPSMT-39"/>
      </g>
     </g>
    </g>
    <g id="ytick_14">
     <g id="line2d_45">
      <g>
       <use xlink:href="#mb9ffca0fab" x="205.94" y="87.2" style="stroke: #000000; stroke-width: 0.8"/>
      </g>
     </g>
     <g id="text_27">
      <!-- 12 -->
      <g style="fill: #0000ff" transform="translate(212.94 90.671875)scale(0.1 -0.1)">
       <use xlink:href="#TimesNewRomanPSMT-31"/>
       <use xlink:href="#TimesNewRomanPSMT-32" x="50"/>
      </g>
     </g>
    </g>
    <g id="ytick_15">
     <g id="line2d_46">
      <g>
       <use xlink:href="#mb9ffca0fab" x="205.94" y="66.515" style="stroke: #000000; stroke-width: 0.8"/>
      </g>
     </g>
     <g id="text_28">
      <!-- 15 -->
      <g style="fill: #0000ff" transform="translate(212.94 69.986875)scale(0.1 -0.1)">
       <use xlink:href="#TimesNewRomanPSMT-31"/>
       <use xlink:href="#TimesNewRomanPSMT-35" x="50"/>
      </g>
     </g>
    </g>
    <g id="ytick_16">
     <g id="line2d_47">
      <g>
       <use xlink:href="#mb9ffca0fab" x="205.94" y="45.83" style="stroke: #000000; stroke-width: 0.8"/>
      </g>
     </g>
     <g id="text_29">
      <!-- 18 -->
      <g style="fill: #0000ff" transform="translate(212.94 49.301875)scale(0.1 -0.1)">
       <use xlink:href="#TimesNewRomanPSMT-31"/>
       <use xlink:href="#TimesNewRomanPSMT-38" x="50"/>
      </g>
     </g>
    </g>
    <g id="ytick_17">
     <g id="line2d_48">
      <g>
       <use xlink:href="#mb9ffca0fab" x="205.94" y="25.145" style="stroke: #000000; stroke-width: 0.8"/>
      </g>
     </g>
     <g id="text_30">
      <!-- 21 -->
      <g style="fill: #0000ff" transform="translate(212.94 28.616875)scale(0.1 -0.1)">
       <use xlink:href="#TimesNewRomanPSMT-32"/>
       <use xlink:href="#TimesNewRomanPSMT-31" x="50"/>
      </g>
     </g>
    </g>
    <g id="ytick_18">
     <g id="line2d_49">
      <g>
       <use xlink:href="#mb9ffca0fab" x="205.94" y="4.46" style="stroke: #000000; stroke-width: 0.8"/>
      </g>
     </g>
     <g id="text_31">
      <!-- 24 -->
      <g style="fill: #0000ff" transform="translate(212.94 7.931875)scale(0.1 -0.1)">
       <use xlink:href="#TimesNewRomanPSMT-32"/>
       <use xlink:href="#TimesNewRomanPSMT-34" x="50"/>
      </g>
     </g>
    </g>
    <g id="text_32">
     <!-- Hour of the day -->
     <g style="fill: #0000ff" transform="translate(233.88375 118.71875)rotate(-90)scale(0.1 -0.1)">
      <defs>
       <path id="TimesNewRomanPSMT-48" d="M 1316 2272 
L 3284 2272 
L 3284 3484 
Q 3284 3809 3244 3913 
Q 3213 3991 3113 4047 
Q 2978 4122 2828 4122 
L 2678 4122 
L 2678 4238 
L 4491 4238 
L 4491 4122 
L 4341 4122 
Q 4191 4122 4056 4050 
Q 3956 4000 3920 3898 
Q 3884 3797 3884 3484 
L 3884 750 
Q 3884 428 3925 325 
Q 3956 247 4053 191 
Q 4191 116 4341 116 
L 4491 116 
L 4491 0 
L 2678 0 
L 2678 116 
L 2828 116 
Q 3088 116 3206 269 
Q 3284 369 3284 750 
L 3284 2041 
L 1316 2041 
L 1316 750 
Q 1316 428 1356 325 
Q 1388 247 1488 191 
Q 1622 116 1772 116 
L 1925 116 
L 1925 0 
L 109 0 
L 109 116 
L 259 116 
Q 522 116 641 269 
Q 716 369 716 750 
L 716 3484 
Q 716 3809 675 3913 
Q 644 3991 547 4047 
Q 409 4122 259 4122 
L 109 4122 
L 109 4238 
L 1925 4238 
L 1925 4122 
L 1772 4122 
Q 1622 4122 1488 4050 
Q 1391 4000 1353 3898 
Q 1316 3797 1316 3484 
L 1316 2272 
z
" transform="scale(0.015625)"/>
       <path id="TimesNewRomanPSMT-66" d="M 1319 2638 
L 1319 756 
Q 1319 356 1406 250 
Q 1522 113 1716 113 
L 1975 113 
L 1975 0 
L 266 0 
L 266 113 
L 394 113 
Q 519 113 622 175 
Q 725 238 764 344 
Q 803 450 803 756 
L 803 2638 
L 247 2638 
L 247 2863 
L 803 2863 
L 803 3050 
Q 803 3478 940 3775 
Q 1078 4072 1361 4255 
Q 1644 4438 1997 4438 
Q 2325 4438 2600 4225 
Q 2781 4084 2781 3909 
Q 2781 3816 2700 3733 
Q 2619 3650 2525 3650 
Q 2453 3650 2373 3701 
Q 2294 3753 2178 3923 
Q 2063 4094 1966 4153 
Q 1869 4213 1750 4213 
Q 1606 4213 1506 4136 
Q 1406 4059 1362 3898 
Q 1319 3738 1319 3069 
L 1319 2863 
L 2056 2863 
L 2056 2638 
L 1319 2638 
z
" transform="scale(0.015625)"/>
       <path id="TimesNewRomanPSMT-68" d="M 1041 4444 
L 1041 2350 
Q 1388 2731 1591 2839 
Q 1794 2947 1997 2947 
Q 2241 2947 2416 2812 
Q 2591 2678 2675 2391 
Q 2734 2191 2734 1659 
L 2734 647 
Q 2734 375 2778 275 
Q 2809 200 2884 156 
Q 2959 113 3159 113 
L 3159 0 
L 1753 0 
L 1753 113 
L 1819 113 
Q 2019 113 2097 173 
Q 2175 234 2206 353 
Q 2216 403 2216 647 
L 2216 1659 
Q 2216 2128 2167 2275 
Q 2119 2422 2012 2495 
Q 1906 2569 1756 2569 
Q 1603 2569 1437 2487 
Q 1272 2406 1041 2159 
L 1041 647 
Q 1041 353 1073 281 
Q 1106 209 1195 161 
Q 1284 113 1503 113 
L 1503 0 
L 84 0 
L 84 113 
Q 275 113 384 172 
Q 447 203 484 290 
Q 522 378 522 647 
L 522 3238 
Q 522 3728 498 3840 
Q 475 3953 426 3993 
Q 378 4034 297 4034 
Q 231 4034 84 3984 
L 41 4094 
L 897 4444 
L 1041 4444 
z
" transform="scale(0.015625)"/>
       <path id="TimesNewRomanPSMT-64" d="M 2222 322 
Q 2013 103 1813 7 
Q 1613 -88 1381 -88 
Q 913 -88 563 304 
Q 213 697 213 1313 
Q 213 1928 600 2439 
Q 988 2950 1597 2950 
Q 1975 2950 2222 2709 
L 2222 3238 
Q 2222 3728 2198 3840 
Q 2175 3953 2125 3993 
Q 2075 4034 2000 4034 
Q 1919 4034 1784 3984 
L 1744 4094 
L 2597 4444 
L 2738 4444 
L 2738 1134 
Q 2738 631 2761 520 
Q 2784 409 2836 365 
Q 2888 322 2956 322 
Q 3041 322 3181 375 
L 3216 266 
L 2366 -88 
L 2222 -88 
L 2222 322 
z
M 2222 541 
L 2222 2016 
Q 2203 2228 2109 2403 
Q 2016 2578 1861 2667 
Q 1706 2756 1559 2756 
Q 1284 2756 1069 2509 
Q 784 2184 784 1559 
Q 784 928 1059 592 
Q 1334 256 1672 256 
Q 1956 256 2222 541 
z
" transform="scale(0.015625)"/>
      </defs>
      <use xlink:href="#TimesNewRomanPSMT-48"/>
      <use xlink:href="#TimesNewRomanPSMT-6f" x="72.216797"/>
      <use xlink:href="#TimesNewRomanPSMT-75" x="122.216797"/>
      <use xlink:href="#TimesNewRomanPSMT-72" x="172.216797"/>
      <use xlink:href="#TimesNewRomanPSMT-20" x="205.517578"/>
      <use xlink:href="#TimesNewRomanPSMT-6f" x="230.517578"/>
      <use xlink:href="#TimesNewRomanPSMT-66" x="280.517578"/>
      <use xlink:href="#TimesNewRomanPSMT-20" x="313.818359"/>
      <use xlink:href="#TimesNewRomanPSMT-74" x="338.818359"/>
      <use xlink:href="#TimesNewRomanPSMT-68" x="366.601562"/>
      <use xlink:href="#TimesNewRomanPSMT-65" x="416.601562"/>
      <use xlink:href="#TimesNewRomanPSMT-20" x="460.986328"/>
      <use xlink:href="#TimesNewRomanPSMT-64" x="485.986328"/>
      <use xlink:href="#TimesNewRomanPSMT-61" x="535.986328"/>
      <use xlink:href="#TimesNewRomanPSMT-79" x="580.371094"/>
     </g>
    </g>
   </g>
   <g id="line2d_50">
    <path d="M 79.8296 169.94 
L 79.8296 163.045 
L 76.596 156.15 
L 76.596 149.255 
L 76.596 142.36 
L 73.3624 135.465 
L 73.3624 128.57 
L 76.596 121.675 
L 78.85952 114.78 
L 83.0632 107.885 
L 86.2968 100.99 
L 89.5304 94.095 
L 92.764 87.2 
L 95.9976 80.305 
L 99.55456 73.41 
L 99.2312 66.515 
L 102.4648 59.62 
L 105.6984 52.725 
L 105.6984 45.83 
L 108.932 38.935 
L 105.6984 32.04 
L 102.4648 25.145 
L 99.2312 18.25 
L 99.2312 11.355 
L 99.2312 4.46 
" clip-path="url(#p3f4f340359)" style="fill: none; stroke: #0000ff; stroke-width: 1.5; stroke-linecap: square"/>
   </g>
   <g id="LineCollection_1">
    <path d="M 76.596 169.94 
L 76.596 4.46 
" clip-path="url(#p3f4f340359)" style="fill: none; stroke: #ff0000; stroke-width: 1.5"/>
   </g>
   <g id="LineCollection_2">
    <path d="M 181.688 169.94 
L 181.688 4.46 
" clip-path="url(#p3f4f340359)" style="fill: none; stroke: #ff0000; stroke-width: 1.5"/>
   </g>
   <g id="patch_106">
    <path d="M 44.26 169.94 
L 44.26 4.46 
" style="fill: none; stroke: #000000; stroke-width: 0.8; stroke-linejoin: miter; stroke-linecap: square"/>
   </g>
   <g id="patch_107">
    <path d="M 205.94 169.94 
L 205.94 4.46 
" style="fill: none; stroke: #000000; stroke-width: 0.8; stroke-linejoin: miter; stroke-linecap: square"/>
   </g>
   <g id="patch_108">
    <path d="M 44.26 169.94 
L 205.94 169.94 
" style="fill: none; stroke: #000000; stroke-width: 0.8; stroke-linejoin: miter; stroke-linecap: square"/>
   </g>
   <g id="patch_109">
    <path d="M 44.26 4.46 
L 205.94 4.46 
" style="fill: none; stroke: #000000; stroke-width: 0.8; stroke-linejoin: miter; stroke-linecap: square"/>
   </g>
  </g>
 </g>
 <defs>
  <clipPath id="p3f4f340359">
   <rect x="44.26" y="4.46" width="161.68" height="165.48"/>
  </clipPath>
 </defs>
</svg>
