<?xml version="1.0" encoding="utf-8" standalone="no"?>
<!DOCTYPE svg PUBLIC "-//W3C//DTD SVG 1.1//EN"
  "http://www.w3.org/Graphics/SVG/1.1/DTD/svg11.dtd">
<svg xmlns:xlink="http://www.w3.org/1999/xlink" width="237.6pt" height="151.2pt" viewBox="0 0 237.6 151.2" xmlns="http://www.w3.org/2000/svg" version="1.1">
 <metadata>
  <rdf:RDF xmlns:dc="http://purl.org/dc/elements/1.1/" xmlns:cc="http://creativecommons.org/ns#" xmlns:rdf="http://www.w3.org/1999/02/22-rdf-syntax-ns#">
   <cc:Work>
    <dc:type rdf:resource="http://purl.org/dc/dcmitype/StillImage"/>
    <dc:date>2022-06-10T02:39:41.354369</dc:date>
    <dc:format>image/svg+xml</dc:format>
    <dc:creator>
     <cc:Agent>
      <dc:title>Matplotlib v3.5.2, https://matplotlib.org/</dc:title>
     </cc:Agent>
    </dc:creator>
   </cc:Work>
  </rdf:RDF>
 </metadata>
 <defs>
  <style type="text/css">*{stroke-linejoin: round; stroke-linecap: butt}</style>
 </defs>
 <g id="figure_1">
  <g id="patch_1">
   <path d="M 0 151.2 
L 237.6 151.2 
L 237.6 0 
L 0 0 
z
" style="fill: #ffffff"/>
  </g>
  <g id="axes_1">
   <g id="patch_2">
    <path d="M 45.5425 121.7225 
L 206.0075 121.7225 
L 206.0075 12.98 
L 45.5425 12.98 
z
" style="fill: #ffffff"/>
   </g>
   <g id="patch_3">
    <path d="M 48.7518 121.7225 
L 50.339907 121.7225 
L 50.339907 121.514887 
L 48.7518 121.514887 
z
" clip-path="url(#p26b99559af)" style="fill: #808080"/>
   </g>
   <g id="patch_4">
    <path d="M 50.339907 121.7225 
L 51.928014 121.7225 
L 51.928014 120.684437 
L 50.339907 120.684437 
z
" clip-path="url(#p26b99559af)" style="fill: #808080"/>
   </g>
   <g id="patch_5">
    <path d="M 51.928014 121.7225 
L 53.516122 121.7225 
L 53.516122 121.7225 
L 51.928014 121.7225 
z
" clip-path="url(#p26b99559af)" style="fill: #808080"/>
   </g>
   <g id="patch_6">
    <path d="M 53.516122 121.7225 
L 55.104229 121.7225 
L 55.104229 121.099662 
L 53.516122 121.099662 
z
" clip-path="url(#p26b99559af)" style="fill: #808080"/>
   </g>
   <g id="patch_7">
    <path d="M 55.104229 121.7225 
L 56.692336 121.7225 
L 56.692336 121.307275 
L 55.104229 121.307275 
z
" clip-path="url(#p26b99559af)" style="fill: #808080"/>
   </g>
   <g id="patch_8">
    <path d="M 56.692336 121.7225 
L 58.280443 121.7225 
L 58.280443 121.7225 
L 56.692336 121.7225 
z
" clip-path="url(#p26b99559af)" style="fill: #808080"/>
   </g>
   <g id="patch_9">
    <path d="M 58.280443 121.7225 
L 59.868551 121.7225 
L 59.868551 121.307275 
L 58.280443 121.307275 
z
" clip-path="url(#p26b99559af)" style="fill: #808080"/>
   </g>
   <g id="patch_10">
    <path d="M 59.868551 121.7225 
L 61.456658 121.7225 
L 61.456658 121.307275 
L 59.868551 121.307275 
z
" clip-path="url(#p26b99559af)" style="fill: #808080"/>
   </g>
   <g id="patch_11">
    <path d="M 61.456658 121.7225 
L 63.044765 121.7225 
L 63.044765 120.061599 
L 61.456658 120.061599 
z
" clip-path="url(#p26b99559af)" style="fill: #808080"/>
   </g>
   <g id="patch_12">
    <path d="M 63.044765 121.7225 
L 64.632872 121.7225 
L 64.632872 119.646374 
L 63.044765 119.646374 
z
" clip-path="url(#p26b99559af)" style="fill: #808080"/>
   </g>
   <g id="patch_13">
    <path d="M 64.632872 121.7225 
L 66.220979 121.7225 
L 66.220979 119.438761 
L 64.632872 119.438761 
z
" clip-path="url(#p26b99559af)" style="fill: #808080"/>
   </g>
   <g id="patch_14">
    <path d="M 66.220979 121.7225 
L 67.809087 121.7225 
L 67.809087 118.400698 
L 66.220979 118.400698 
z
" clip-path="url(#p26b99559af)" style="fill: #808080"/>
   </g>
   <g id="patch_15">
    <path d="M 67.809087 121.7225 
L 69.397194 121.7225 
L 69.397194 120.061599 
L 67.809087 120.061599 
z
" clip-path="url(#p26b99559af)" style="fill: #808080"/>
   </g>
   <g id="patch_16">
    <path d="M 69.397194 121.7225 
L 70.985301 121.7225 
L 70.985301 118.608311 
L 69.397194 118.608311 
z
" clip-path="url(#p26b99559af)" style="fill: #808080"/>
   </g>
   <g id="patch_17">
    <path d="M 70.985301 121.7225 
L 72.573408 121.7225 
L 72.573408 119.231149 
L 70.985301 119.231149 
z
" clip-path="url(#p26b99559af)" style="fill: #808080"/>
   </g>
   <g id="patch_18">
    <path d="M 72.573408 121.7225 
L 74.161515 121.7225 
L 74.161515 118.400698 
L 72.573408 118.400698 
z
" clip-path="url(#p26b99559af)" style="fill: #808080"/>
   </g>
   <g id="patch_19">
    <path d="M 74.161515 121.7225 
L 75.749623 121.7225 
L 75.749623 118.815924 
L 74.161515 118.815924 
z
" clip-path="url(#p26b99559af)" style="fill: #808080"/>
   </g>
   <g id="patch_20">
    <path d="M 75.749623 121.7225 
L 77.33773 121.7225 
L 77.33773 120.061599 
L 75.749623 120.061599 
z
" clip-path="url(#p26b99559af)" style="fill: #808080"/>
   </g>
   <g id="patch_21">
    <path d="M 77.33773 121.7225 
L 78.925837 121.7225 
L 78.925837 119.023536 
L 77.33773 119.023536 
z
" clip-path="url(#p26b99559af)" style="fill: #808080"/>
   </g>
   <g id="patch_22">
    <path d="M 78.925837 121.7225 
L 80.513944 121.7225 
L 80.513944 114.456059 
L 78.925837 114.456059 
z
" clip-path="url(#p26b99559af)" style="fill: #808080"/>
   </g>
   <g id="patch_23">
    <path d="M 80.513944 121.7225 
L 82.102052 121.7225 
L 82.102052 114.871284 
L 80.513944 114.871284 
z
" clip-path="url(#p26b99559af)" style="fill: #808080"/>
   </g>
   <g id="patch_24">
    <path d="M 82.102052 121.7225 
L 83.690159 121.7225 
L 83.690159 113.210383 
L 82.102052 113.210383 
z
" clip-path="url(#p26b99559af)" style="fill: #808080"/>
   </g>
   <g id="patch_25">
    <path d="M 83.690159 121.7225 
L 85.278266 121.7225 
L 85.278266 112.17232 
L 83.690159 112.17232 
z
" clip-path="url(#p26b99559af)" style="fill: #808080"/>
   </g>
   <g id="patch_26">
    <path d="M 85.278266 121.7225 
L 86.866373 121.7225 
L 86.866373 109.473356 
L 85.278266 109.473356 
z
" clip-path="url(#p26b99559af)" style="fill: #808080"/>
   </g>
   <g id="patch_27">
    <path d="M 86.866373 121.7225 
L 88.45448 121.7225 
L 88.45448 105.736329 
L 86.866373 105.736329 
z
" clip-path="url(#p26b99559af)" style="fill: #808080"/>
   </g>
   <g id="patch_28">
    <path d="M 88.45448 121.7225 
L 90.042588 121.7225 
L 90.042588 106.982005 
L 88.45448 106.982005 
z
" clip-path="url(#p26b99559af)" style="fill: #808080"/>
   </g>
   <g id="patch_29">
    <path d="M 90.042588 121.7225 
L 91.630695 121.7225 
L 91.630695 99.715564 
L 90.042588 99.715564 
z
" clip-path="url(#p26b99559af)" style="fill: #808080"/>
   </g>
   <g id="patch_30">
    <path d="M 91.630695 121.7225 
L 93.218802 121.7225 
L 93.218802 95.978537 
L 91.630695 95.978537 
z
" clip-path="url(#p26b99559af)" style="fill: #808080"/>
   </g>
   <g id="patch_31">
    <path d="M 93.218802 121.7225 
L 94.806909 121.7225 
L 94.806909 95.563312 
L 93.218802 95.563312 
z
" clip-path="url(#p26b99559af)" style="fill: #808080"/>
   </g>
   <g id="patch_32">
    <path d="M 94.806909 121.7225 
L 96.395016 121.7225 
L 96.395016 87.258808 
L 94.806909 87.258808 
z
" clip-path="url(#p26b99559af)" style="fill: #808080"/>
   </g>
   <g id="patch_33">
    <path d="M 96.395016 121.7225 
L 97.983124 121.7225 
L 97.983124 80.199979 
L 96.395016 80.199979 
z
" clip-path="url(#p26b99559af)" style="fill: #808080"/>
   </g>
   <g id="patch_34">
    <path d="M 97.983124 121.7225 
L 99.571231 121.7225 
L 99.571231 81.653267 
L 97.983124 81.653267 
z
" clip-path="url(#p26b99559af)" style="fill: #808080"/>
   </g>
   <g id="patch_35">
    <path d="M 99.571231 121.7225 
L 101.159338 121.7225 
L 101.159338 80.615204 
L 99.571231 80.615204 
z
" clip-path="url(#p26b99559af)" style="fill: #808080"/>
   </g>
   <g id="patch_36">
    <path d="M 101.159338 121.7225 
L 102.747445 121.7225 
L 102.747445 79.577141 
L 101.159338 79.577141 
z
" clip-path="url(#p26b99559af)" style="fill: #808080"/>
   </g>
   <g id="patch_37">
    <path d="M 102.747445 121.7225 
L 104.335553 121.7225 
L 104.335553 75.009664 
L 102.747445 75.009664 
z
" clip-path="url(#p26b99559af)" style="fill: #808080"/>
   </g>
   <g id="patch_38">
    <path d="M 104.335553 121.7225 
L 105.92366 121.7225 
L 105.92366 78.123853 
L 104.335553 78.123853 
z
" clip-path="url(#p26b99559af)" style="fill: #808080"/>
   </g>
   <g id="patch_39">
    <path d="M 105.92366 121.7225 
L 107.511767 121.7225 
L 107.511767 76.047727 
L 105.92366 76.047727 
z
" clip-path="url(#p26b99559af)" style="fill: #808080"/>
   </g>
   <g id="patch_40">
    <path d="M 107.511767 121.7225 
L 109.099874 121.7225 
L 109.099874 74.594439 
L 107.511767 74.594439 
z
" clip-path="url(#p26b99559af)" style="fill: #808080"/>
   </g>
   <g id="patch_41">
    <path d="M 109.099874 121.7225 
L 110.687981 121.7225 
L 110.687981 70.649799 
L 109.099874 70.649799 
z
" clip-path="url(#p26b99559af)" style="fill: #808080"/>
   </g>
   <g id="patch_42">
    <path d="M 110.687981 121.7225 
L 112.276089 121.7225 
L 112.276089 69.404123 
L 110.687981 69.404123 
z
" clip-path="url(#p26b99559af)" style="fill: #808080"/>
   </g>
   <g id="patch_43">
    <path d="M 112.276089 121.7225 
L 113.864196 121.7225 
L 113.864196 70.234574 
L 112.276089 70.234574 
z
" clip-path="url(#p26b99559af)" style="fill: #808080"/>
   </g>
   <g id="patch_44">
    <path d="M 113.864196 121.7225 
L 115.452303 121.7225 
L 115.452303 69.819349 
L 113.864196 69.819349 
z
" clip-path="url(#p26b99559af)" style="fill: #808080"/>
   </g>
   <g id="patch_45">
    <path d="M 115.452303 121.7225 
L 117.04041 121.7225 
L 117.04041 73.971601 
L 115.452303 73.971601 
z
" clip-path="url(#p26b99559af)" style="fill: #808080"/>
   </g>
   <g id="patch_46">
    <path d="M 117.04041 121.7225 
L 118.628518 121.7225 
L 118.628518 71.480249 
L 117.04041 71.480249 
z
" clip-path="url(#p26b99559af)" style="fill: #808080"/>
   </g>
   <g id="patch_47">
    <path d="M 118.628518 121.7225 
L 120.216625 121.7225 
L 120.216625 66.497547 
L 118.628518 66.497547 
z
" clip-path="url(#p26b99559af)" style="fill: #808080"/>
   </g>
   <g id="patch_48">
    <path d="M 120.216625 121.7225 
L 121.804732 121.7225 
L 121.804732 67.950835 
L 120.216625 67.950835 
z
" clip-path="url(#p26b99559af)" style="fill: #808080"/>
   </g>
   <g id="patch_49">
    <path d="M 121.804732 121.7225 
L 123.392839 121.7225 
L 123.392839 61.514844 
L 121.804732 61.514844 
z
" clip-path="url(#p26b99559af)" style="fill: #808080"/>
   </g>
   <g id="patch_50">
    <path d="M 123.392839 121.7225 
L 124.980946 121.7225 
L 124.980946 54.248403 
L 123.392839 54.248403 
z
" clip-path="url(#p26b99559af)" style="fill: #808080"/>
   </g>
   <g id="patch_51">
    <path d="M 124.980946 121.7225 
L 126.569054 121.7225 
L 126.569054 55.078854 
L 124.980946 55.078854 
z
" clip-path="url(#p26b99559af)" style="fill: #808080"/>
   </g>
   <g id="patch_52">
    <path d="M 126.569054 121.7225 
L 128.157161 121.7225 
L 128.157161 39.715521 
L 126.569054 39.715521 
z
" clip-path="url(#p26b99559af)" style="fill: #808080"/>
   </g>
   <g id="patch_53">
    <path d="M 128.157161 121.7225 
L 129.745268 121.7225 
L 129.745268 45.736286 
L 128.157161 45.736286 
z
" clip-path="url(#p26b99559af)" style="fill: #808080"/>
   </g>
   <g id="patch_54">
    <path d="M 129.745268 121.7225 
L 131.333375 121.7225 
L 131.333375 41.99926 
L 129.745268 41.99926 
z
" clip-path="url(#p26b99559af)" style="fill: #808080"/>
   </g>
   <g id="patch_55">
    <path d="M 131.333375 121.7225 
L 132.921482 121.7225 
L 132.921482 31.411017 
L 131.333375 31.411017 
z
" clip-path="url(#p26b99559af)" style="fill: #808080"/>
   </g>
   <g id="patch_56">
    <path d="M 132.921482 121.7225 
L 134.50959 121.7225 
L 134.50959 30.995791 
L 132.921482 30.995791 
z
" clip-path="url(#p26b99559af)" style="fill: #808080"/>
   </g>
   <g id="patch_57">
    <path d="M 134.50959 121.7225 
L 136.097697 121.7225 
L 136.097697 37.431782 
L 134.50959 37.431782 
z
" clip-path="url(#p26b99559af)" style="fill: #808080"/>
   </g>
   <g id="patch_58">
    <path d="M 136.097697 121.7225 
L 137.685804 121.7225 
L 137.685804 38.677458 
L 136.097697 38.677458 
z
" clip-path="url(#p26b99559af)" style="fill: #808080"/>
   </g>
   <g id="patch_59">
    <path d="M 137.685804 121.7225 
L 139.273911 121.7225 
L 139.273911 29.334891 
L 137.685804 29.334891 
z
" clip-path="url(#p26b99559af)" style="fill: #808080"/>
   </g>
   <g id="patch_60">
    <path d="M 139.273911 121.7225 
L 140.862019 121.7225 
L 140.862019 31.411017 
L 139.273911 31.411017 
z
" clip-path="url(#p26b99559af)" style="fill: #808080"/>
   </g>
   <g id="patch_61">
    <path d="M 140.862019 121.7225 
L 142.450126 121.7225 
L 142.450126 21.653224 
L 140.862019 21.653224 
z
" clip-path="url(#p26b99559af)" style="fill: #808080"/>
   </g>
   <g id="patch_62">
    <path d="M 142.450126 121.7225 
L 144.038233 121.7225 
L 144.038233 22.691287 
L 142.450126 22.691287 
z
" clip-path="url(#p26b99559af)" style="fill: #808080"/>
   </g>
   <g id="patch_63">
    <path d="M 144.038233 121.7225 
L 145.62634 121.7225 
L 145.62634 18.12381 
L 144.038233 18.12381 
z
" clip-path="url(#p26b99559af)" style="fill: #808080"/>
   </g>
   <g id="patch_64">
    <path d="M 145.62634 121.7225 
L 147.214447 121.7225 
L 147.214447 35.978494 
L 145.62634 35.978494 
z
" clip-path="url(#p26b99559af)" style="fill: #808080"/>
   </g>
   <g id="patch_65">
    <path d="M 147.214447 121.7225 
L 148.802555 121.7225 
L 148.802555 36.808944 
L 147.214447 36.808944 
z
" clip-path="url(#p26b99559af)" style="fill: #808080"/>
   </g>
   <g id="patch_66">
    <path d="M 148.802555 121.7225 
L 150.390662 121.7225 
L 150.390662 53.002728 
L 148.802555 53.002728 
z
" clip-path="url(#p26b99559af)" style="fill: #808080"/>
   </g>
   <g id="patch_67">
    <path d="M 150.390662 121.7225 
L 151.978769 121.7225 
L 151.978769 35.770881 
L 150.390662 35.770881 
z
" clip-path="url(#p26b99559af)" style="fill: #808080"/>
   </g>
   <g id="patch_68">
    <path d="M 151.978769 121.7225 
L 153.566876 121.7225 
L 153.566876 38.05462 
L 151.978769 38.05462 
z
" clip-path="url(#p26b99559af)" style="fill: #808080"/>
   </g>
   <g id="patch_69">
    <path d="M 153.566876 121.7225 
L 155.154984 121.7225 
L 155.154984 33.694755 
L 153.566876 33.694755 
z
" clip-path="url(#p26b99559af)" style="fill: #808080"/>
   </g>
   <g id="patch_70">
    <path d="M 155.154984 121.7225 
L 156.743091 121.7225 
L 156.743091 28.919665 
L 155.154984 28.919665 
z
" clip-path="url(#p26b99559af)" style="fill: #808080"/>
   </g>
   <g id="patch_71">
    <path d="M 156.743091 121.7225 
L 158.331198 121.7225 
L 158.331198 44.698223 
L 156.743091 44.698223 
z
" clip-path="url(#p26b99559af)" style="fill: #808080"/>
   </g>
   <g id="patch_72">
    <path d="M 158.331198 121.7225 
L 159.919305 121.7225 
L 159.919305 41.99926 
L 158.331198 41.99926 
z
" clip-path="url(#p26b99559af)" style="fill: #808080"/>
   </g>
   <g id="patch_73">
    <path d="M 159.919305 121.7225 
L 161.507412 121.7225 
L 161.507412 53.002728 
L 159.919305 53.002728 
z
" clip-path="url(#p26b99559af)" style="fill: #808080"/>
   </g>
   <g id="patch_74">
    <path d="M 161.507412 121.7225 
L 163.09552 121.7225 
L 163.09552 69.196511 
L 161.507412 69.196511 
z
" clip-path="url(#p26b99559af)" style="fill: #808080"/>
   </g>
   <g id="patch_75">
    <path d="M 163.09552 121.7225 
L 164.683627 121.7225 
L 164.683627 78.539078 
L 163.09552 78.539078 
z
" clip-path="url(#p26b99559af)" style="fill: #808080"/>
   </g>
   <g id="patch_76">
    <path d="M 164.683627 121.7225 
L 166.271734 121.7225 
L 166.271734 85.182681 
L 164.683627 85.182681 
z
" clip-path="url(#p26b99559af)" style="fill: #808080"/>
   </g>
   <g id="patch_77">
    <path d="M 166.271734 121.7225 
L 167.859841 121.7225 
L 167.859841 88.712096 
L 166.271734 88.712096 
z
" clip-path="url(#p26b99559af)" style="fill: #808080"/>
   </g>
   <g id="patch_78">
    <path d="M 167.859841 121.7225 
L 169.447948 121.7225 
L 169.447948 96.601375 
L 167.859841 96.601375 
z
" clip-path="url(#p26b99559af)" style="fill: #808080"/>
   </g>
   <g id="patch_79">
    <path d="M 169.447948 121.7225 
L 171.036056 121.7225 
L 171.036056 99.300339 
L 169.447948 99.300339 
z
" clip-path="url(#p26b99559af)" style="fill: #808080"/>
   </g>
   <g id="patch_80">
    <path d="M 171.036056 121.7225 
L 172.624163 121.7225 
L 172.624163 102.206915 
L 171.036056 102.206915 
z
" clip-path="url(#p26b99559af)" style="fill: #808080"/>
   </g>
   <g id="patch_81">
    <path d="M 172.624163 121.7225 
L 174.21227 121.7225 
L 174.21227 103.037366 
L 172.624163 103.037366 
z
" clip-path="url(#p26b99559af)" style="fill: #808080"/>
   </g>
   <g id="patch_82">
    <path d="M 174.21227 121.7225 
L 175.800377 121.7225 
L 175.800377 107.812455 
L 174.21227 107.812455 
z
" clip-path="url(#p26b99559af)" style="fill: #808080"/>
   </g>
   <g id="patch_83">
    <path d="M 175.800377 121.7225 
L 177.388485 121.7225 
L 177.388485 110.926645 
L 175.800377 110.926645 
z
" clip-path="url(#p26b99559af)" style="fill: #808080"/>
   </g>
   <g id="patch_84">
    <path d="M 177.388485 121.7225 
L 178.976592 121.7225 
L 178.976592 112.17232 
L 177.388485 112.17232 
z
" clip-path="url(#p26b99559af)" style="fill: #808080"/>
   </g>
   <g id="patch_85">
    <path d="M 178.976592 121.7225 
L 180.564699 121.7225 
L 180.564699 113.625608 
L 178.976592 113.625608 
z
" clip-path="url(#p26b99559af)" style="fill: #808080"/>
   </g>
   <g id="patch_86">
    <path d="M 180.564699 121.7225 
L 182.152806 121.7225 
L 182.152806 116.324572 
L 180.564699 116.324572 
z
" clip-path="url(#p26b99559af)" style="fill: #808080"/>
   </g>
   <g id="patch_87">
    <path d="M 182.152806 121.7225 
L 183.740913 121.7225 
L 183.740913 115.701734 
L 182.152806 115.701734 
z
" clip-path="url(#p26b99559af)" style="fill: #808080"/>
   </g>
   <g id="patch_88">
    <path d="M 183.740913 121.7225 
L 185.329021 121.7225 
L 185.329021 115.286509 
L 183.740913 115.286509 
z
" clip-path="url(#p26b99559af)" style="fill: #808080"/>
   </g>
   <g id="patch_89">
    <path d="M 185.329021 121.7225 
L 186.917128 121.7225 
L 186.917128 117.570248 
L 185.329021 117.570248 
z
" clip-path="url(#p26b99559af)" style="fill: #808080"/>
   </g>
   <g id="patch_90">
    <path d="M 186.917128 121.7225 
L 188.505235 121.7225 
L 188.505235 115.909347 
L 186.917128 115.909347 
z
" clip-path="url(#p26b99559af)" style="fill: #808080"/>
   </g>
   <g id="patch_91">
    <path d="M 188.505235 121.7225 
L 190.093342 121.7225 
L 190.093342 116.532185 
L 188.505235 116.532185 
z
" clip-path="url(#p26b99559af)" style="fill: #808080"/>
   </g>
   <g id="patch_92">
    <path d="M 190.093342 121.7225 
L 191.681449 121.7225 
L 191.681449 118.608311 
L 190.093342 118.608311 
z
" clip-path="url(#p26b99559af)" style="fill: #808080"/>
   </g>
   <g id="patch_93">
    <path d="M 191.681449 121.7225 
L 193.269557 121.7225 
L 193.269557 120.061599 
L 191.681449 120.061599 
z
" clip-path="url(#p26b99559af)" style="fill: #808080"/>
   </g>
   <g id="patch_94">
    <path d="M 193.269557 121.7225 
L 194.857664 121.7225 
L 194.857664 119.023536 
L 193.269557 119.023536 
z
" clip-path="url(#p26b99559af)" style="fill: #808080"/>
   </g>
   <g id="patch_95">
    <path d="M 194.857664 121.7225 
L 196.445771 121.7225 
L 196.445771 119.023536 
L 194.857664 119.023536 
z
" clip-path="url(#p26b99559af)" style="fill: #808080"/>
   </g>
   <g id="patch_96">
    <path d="M 196.445771 121.7225 
L 198.033878 121.7225 
L 198.033878 119.438761 
L 196.445771 119.438761 
z
" clip-path="url(#p26b99559af)" style="fill: #808080"/>
   </g>
   <g id="patch_97">
    <path d="M 198.033878 121.7225 
L 199.621986 121.7225 
L 199.621986 120.89205 
L 198.033878 120.89205 
z
" clip-path="url(#p26b99559af)" style="fill: #808080"/>
   </g>
   <g id="patch_98">
    <path d="M 199.621986 121.7225 
L 201.210093 121.7225 
L 201.210093 120.684437 
L 199.621986 120.684437 
z
" clip-path="url(#p26b99559af)" style="fill: #808080"/>
   </g>
   <g id="patch_99">
    <path d="M 201.210093 121.7225 
L 202.7982 121.7225 
L 202.7982 120.89205 
L 201.210093 120.89205 
z
" clip-path="url(#p26b99559af)" style="fill: #808080"/>
   </g>
   <g id="matplotlib.axis_1">
    <g id="xtick_1">
     <g id="line2d_1">
      <path d="M 45.5425 121.7225 
L 45.5425 12.98 
" clip-path="url(#p26b99559af)" style="fill: none; stroke: #b0b0b0; stroke-opacity: 0.2; stroke-width: 0.8; stroke-linecap: square"/>
     </g>
     <g id="line2d_2">
      <defs>
       <path id="mc8a8f032ed" d="M 0 0 
L 0 3.5 
" style="stroke: #000000; stroke-width: 0.8"/>
      </defs>
      <g>
       <use xlink:href="#mc8a8f032ed" x="45.5425" y="121.7225" style="stroke: #000000; stroke-width: 0.8"/>
      </g>
     </g>
     <g id="text_1">
      <!-- -35 -->
      <g transform="translate(38.316719 135.880313)scale(0.1 -0.1)">
       <defs>
        <path id="ArialMT-2d" d="M 203 1375 
L 203 1941 
L 1931 1941 
L 1931 1375 
L 203 1375 
z
" transform="scale(0.015625)"/>
        <path id="ArialMT-33" d="M 269 1209 
L 831 1284 
Q 928 806 1161 595 
Q 1394 384 1728 384 
Q 2125 384 2398 659 
Q 2672 934 2672 1341 
Q 2672 1728 2419 1979 
Q 2166 2231 1775 2231 
Q 1616 2231 1378 2169 
L 1441 2663 
Q 1497 2656 1531 2656 
Q 1891 2656 2178 2843 
Q 2466 3031 2466 3422 
Q 2466 3731 2256 3934 
Q 2047 4138 1716 4138 
Q 1388 4138 1169 3931 
Q 950 3725 888 3313 
L 325 3413 
Q 428 3978 793 4289 
Q 1159 4600 1703 4600 
Q 2078 4600 2393 4439 
Q 2709 4278 2876 4000 
Q 3044 3722 3044 3409 
Q 3044 3113 2884 2869 
Q 2725 2625 2413 2481 
Q 2819 2388 3044 2092 
Q 3269 1797 3269 1353 
Q 3269 753 2831 336 
Q 2394 -81 1725 -81 
Q 1122 -81 723 278 
Q 325 638 269 1209 
z
" transform="scale(0.015625)"/>
        <path id="ArialMT-35" d="M 266 1200 
L 856 1250 
Q 922 819 1161 601 
Q 1400 384 1738 384 
Q 2144 384 2425 690 
Q 2706 997 2706 1503 
Q 2706 1984 2436 2262 
Q 2166 2541 1728 2541 
Q 1456 2541 1237 2417 
Q 1019 2294 894 2097 
L 366 2166 
L 809 4519 
L 3088 4519 
L 3088 3981 
L 1259 3981 
L 1013 2750 
Q 1425 3038 1878 3038 
Q 2478 3038 2890 2622 
Q 3303 2206 3303 1553 
Q 3303 931 2941 478 
Q 2500 -78 1738 -78 
Q 1113 -78 717 272 
Q 322 622 266 1200 
z
" transform="scale(0.015625)"/>
       </defs>
       <use xlink:href="#ArialMT-2d"/>
       <use xlink:href="#ArialMT-33" x="33.300781"/>
       <use xlink:href="#ArialMT-35" x="88.916016"/>
      </g>
     </g>
    </g>
    <g id="xtick_2">
     <g id="line2d_3">
      <path d="M 61.589 121.7225 
L 61.589 12.98 
" clip-path="url(#p26b99559af)" style="fill: none; stroke: #b0b0b0; stroke-opacity: 0.2; stroke-width: 0.8; stroke-linecap: square"/>
     </g>
     <g id="line2d_4">
      <g>
       <use xlink:href="#mc8a8f032ed" x="61.589" y="121.7225" style="stroke: #000000; stroke-width: 0.8"/>
      </g>
     </g>
     <g id="text_2">
      <!-- -30 -->
      <g transform="translate(54.363219 135.880313)scale(0.1 -0.1)">
       <defs>
        <path id="ArialMT-30" d="M 266 2259 
Q 266 3072 433 3567 
Q 600 4063 929 4331 
Q 1259 4600 1759 4600 
Q 2128 4600 2406 4451 
Q 2684 4303 2865 4023 
Q 3047 3744 3150 3342 
Q 3253 2941 3253 2259 
Q 3253 1453 3087 958 
Q 2922 463 2592 192 
Q 2263 -78 1759 -78 
Q 1097 -78 719 397 
Q 266 969 266 2259 
z
M 844 2259 
Q 844 1131 1108 757 
Q 1372 384 1759 384 
Q 2147 384 2411 759 
Q 2675 1134 2675 2259 
Q 2675 3391 2411 3762 
Q 2147 4134 1753 4134 
Q 1366 4134 1134 3806 
Q 844 3388 844 2259 
z
" transform="scale(0.015625)"/>
       </defs>
       <use xlink:href="#ArialMT-2d"/>
       <use xlink:href="#ArialMT-33" x="33.300781"/>
       <use xlink:href="#ArialMT-30" x="88.916016"/>
      </g>
     </g>
    </g>
    <g id="xtick_3">
     <g id="line2d_5">
      <path d="M 77.6355 121.7225 
L 77.6355 12.98 
" clip-path="url(#p26b99559af)" style="fill: none; stroke: #b0b0b0; stroke-opacity: 0.2; stroke-width: 0.8; stroke-linecap: square"/>
     </g>
     <g id="line2d_6">
      <g>
       <use xlink:href="#mc8a8f032ed" x="77.6355" y="121.7225" style="stroke: #000000; stroke-width: 0.8"/>
      </g>
     </g>
     <g id="text_3">
      <!-- -25 -->
      <g transform="translate(70.409719 135.880313)scale(0.1 -0.1)">
       <defs>
        <path id="ArialMT-32" d="M 3222 541 
L 3222 0 
L 194 0 
Q 188 203 259 391 
Q 375 700 629 1000 
Q 884 1300 1366 1694 
Q 2113 2306 2375 2664 
Q 2638 3022 2638 3341 
Q 2638 3675 2398 3904 
Q 2159 4134 1775 4134 
Q 1369 4134 1125 3890 
Q 881 3647 878 3216 
L 300 3275 
Q 359 3922 746 4261 
Q 1134 4600 1788 4600 
Q 2447 4600 2831 4234 
Q 3216 3869 3216 3328 
Q 3216 3053 3103 2787 
Q 2991 2522 2730 2228 
Q 2469 1934 1863 1422 
Q 1356 997 1212 845 
Q 1069 694 975 541 
L 3222 541 
z
" transform="scale(0.015625)"/>
       </defs>
       <use xlink:href="#ArialMT-2d"/>
       <use xlink:href="#ArialMT-32" x="33.300781"/>
       <use xlink:href="#ArialMT-35" x="88.916016"/>
      </g>
     </g>
    </g>
    <g id="xtick_4">
     <g id="line2d_7">
      <path d="M 93.682 121.7225 
L 93.682 12.98 
" clip-path="url(#p26b99559af)" style="fill: none; stroke: #b0b0b0; stroke-opacity: 0.2; stroke-width: 0.8; stroke-linecap: square"/>
     </g>
     <g id="line2d_8">
      <g>
       <use xlink:href="#mc8a8f032ed" x="93.682" y="121.7225" style="stroke: #000000; stroke-width: 0.8"/>
      </g>
     </g>
     <g id="text_4">
      <!-- -20 -->
      <g transform="translate(86.456219 135.880313)scale(0.1 -0.1)">
       <use xlink:href="#ArialMT-2d"/>
       <use xlink:href="#ArialMT-32" x="33.300781"/>
       <use xlink:href="#ArialMT-30" x="88.916016"/>
      </g>
     </g>
    </g>
    <g id="xtick_5">
     <g id="line2d_9">
      <path d="M 109.7285 121.7225 
L 109.7285 12.98 
" clip-path="url(#p26b99559af)" style="fill: none; stroke: #b0b0b0; stroke-opacity: 0.2; stroke-width: 0.8; stroke-linecap: square"/>
     </g>
     <g id="line2d_10">
      <g>
       <use xlink:href="#mc8a8f032ed" x="109.7285" y="121.7225" style="stroke: #000000; stroke-width: 0.8"/>
      </g>
     </g>
     <g id="text_5">
      <!-- -15 -->
      <g transform="translate(102.502719 135.880313)scale(0.1 -0.1)">
       <defs>
        <path id="ArialMT-31" d="M 2384 0 
L 1822 0 
L 1822 3584 
Q 1619 3391 1289 3197 
Q 959 3003 697 2906 
L 697 3450 
Q 1169 3672 1522 3987 
Q 1875 4303 2022 4600 
L 2384 4600 
L 2384 0 
z
" transform="scale(0.015625)"/>
       </defs>
       <use xlink:href="#ArialMT-2d"/>
       <use xlink:href="#ArialMT-31" x="33.300781"/>
       <use xlink:href="#ArialMT-35" x="88.916016"/>
      </g>
     </g>
    </g>
    <g id="xtick_6">
     <g id="line2d_11">
      <path d="M 125.775 121.7225 
L 125.775 12.98 
" clip-path="url(#p26b99559af)" style="fill: none; stroke: #b0b0b0; stroke-opacity: 0.2; stroke-width: 0.8; stroke-linecap: square"/>
     </g>
     <g id="line2d_12">
      <g>
       <use xlink:href="#mc8a8f032ed" x="125.775" y="121.7225" style="stroke: #000000; stroke-width: 0.8"/>
      </g>
     </g>
     <g id="text_6">
      <!-- -10 -->
      <g transform="translate(118.549219 135.880313)scale(0.1 -0.1)">
       <use xlink:href="#ArialMT-2d"/>
       <use xlink:href="#ArialMT-31" x="33.300781"/>
       <use xlink:href="#ArialMT-30" x="88.916016"/>
      </g>
     </g>
    </g>
    <g id="xtick_7">
     <g id="line2d_13">
      <path d="M 141.8215 121.7225 
L 141.8215 12.98 
" clip-path="url(#p26b99559af)" style="fill: none; stroke: #b0b0b0; stroke-opacity: 0.2; stroke-width: 0.8; stroke-linecap: square"/>
     </g>
     <g id="line2d_14">
      <g>
       <use xlink:href="#mc8a8f032ed" x="141.8215" y="121.7225" style="stroke: #000000; stroke-width: 0.8"/>
      </g>
     </g>
     <g id="text_7">
      <!-- -5 -->
      <g transform="translate(137.376187 135.880313)scale(0.1 -0.1)">
       <use xlink:href="#ArialMT-2d"/>
       <use xlink:href="#ArialMT-35" x="33.300781"/>
      </g>
     </g>
    </g>
    <g id="xtick_8">
     <g id="line2d_15">
      <path d="M 157.868 121.7225 
L 157.868 12.98 
" clip-path="url(#p26b99559af)" style="fill: none; stroke: #b0b0b0; stroke-opacity: 0.2; stroke-width: 0.8; stroke-linecap: square"/>
     </g>
     <g id="line2d_16">
      <g>
       <use xlink:href="#mc8a8f032ed" x="157.868" y="121.7225" style="stroke: #000000; stroke-width: 0.8"/>
      </g>
     </g>
     <g id="text_8">
      <!-- 0 -->
      <g transform="translate(155.087531 135.880313)scale(0.1 -0.1)">
       <use xlink:href="#ArialMT-30"/>
      </g>
     </g>
    </g>
    <g id="xtick_9">
     <g id="line2d_17">
      <path d="M 173.9145 121.7225 
L 173.9145 12.98 
" clip-path="url(#p26b99559af)" style="fill: none; stroke: #b0b0b0; stroke-opacity: 0.2; stroke-width: 0.8; stroke-linecap: square"/>
     </g>
     <g id="line2d_18">
      <g>
       <use xlink:href="#mc8a8f032ed" x="173.9145" y="121.7225" style="stroke: #000000; stroke-width: 0.8"/>
      </g>
     </g>
     <g id="text_9">
      <!-- 5 -->
      <g transform="translate(171.134031 135.880313)scale(0.1 -0.1)">
       <use xlink:href="#ArialMT-35"/>
      </g>
     </g>
    </g>
    <g id="xtick_10">
     <g id="line2d_19">
      <path d="M 189.961 121.7225 
L 189.961 12.98 
" clip-path="url(#p26b99559af)" style="fill: none; stroke: #b0b0b0; stroke-opacity: 0.2; stroke-width: 0.8; stroke-linecap: square"/>
     </g>
     <g id="line2d_20">
      <g>
       <use xlink:href="#mc8a8f032ed" x="189.961" y="121.7225" style="stroke: #000000; stroke-width: 0.8"/>
      </g>
     </g>
     <g id="text_10">
      <!-- 10 -->
      <g transform="translate(184.400062 135.880313)scale(0.1 -0.1)">
       <use xlink:href="#ArialMT-31"/>
       <use xlink:href="#ArialMT-30" x="55.615234"/>
      </g>
     </g>
    </g>
    <g id="xtick_11">
     <g id="line2d_21">
      <path d="M 206.0075 121.7225 
L 206.0075 12.98 
" clip-path="url(#p26b99559af)" style="fill: none; stroke: #b0b0b0; stroke-opacity: 0.2; stroke-width: 0.8; stroke-linecap: square"/>
     </g>
     <g id="line2d_22">
      <g>
       <use xlink:href="#mc8a8f032ed" x="206.0075" y="121.7225" style="stroke: #000000; stroke-width: 0.8"/>
      </g>
     </g>
     <g id="text_11">
      <!-- 15 -->
      <g transform="translate(200.446562 135.880313)scale(0.1 -0.1)">
       <use xlink:href="#ArialMT-31"/>
       <use xlink:href="#ArialMT-35" x="55.615234"/>
      </g>
     </g>
    </g>
    <g id="text_12">
     <!-- Dewpoint temperature [°C] -->
     <g transform="translate(66.809375 149.1475)scale(0.1 -0.1)">
      <defs>
       <path id="ArialMT-44" d="M 494 0 
L 494 4581 
L 2072 4581 
Q 2606 4581 2888 4516 
Q 3281 4425 3559 4188 
Q 3922 3881 4101 3404 
Q 4281 2928 4281 2316 
Q 4281 1794 4159 1391 
Q 4038 988 3847 723 
Q 3656 459 3429 307 
Q 3203 156 2883 78 
Q 2563 0 2147 0 
L 494 0 
z
M 1100 541 
L 2078 541 
Q 2531 541 2789 625 
Q 3047 709 3200 863 
Q 3416 1078 3536 1442 
Q 3656 1806 3656 2325 
Q 3656 3044 3420 3430 
Q 3184 3816 2847 3947 
Q 2603 4041 2063 4041 
L 1100 4041 
L 1100 541 
z
" transform="scale(0.015625)"/>
       <path id="ArialMT-65" d="M 2694 1069 
L 3275 997 
Q 3138 488 2766 206 
Q 2394 -75 1816 -75 
Q 1088 -75 661 373 
Q 234 822 234 1631 
Q 234 2469 665 2931 
Q 1097 3394 1784 3394 
Q 2450 3394 2872 2941 
Q 3294 2488 3294 1666 
Q 3294 1616 3291 1516 
L 816 1516 
Q 847 969 1125 678 
Q 1403 388 1819 388 
Q 2128 388 2347 550 
Q 2566 713 2694 1069 
z
M 847 1978 
L 2700 1978 
Q 2663 2397 2488 2606 
Q 2219 2931 1791 2931 
Q 1403 2931 1139 2672 
Q 875 2413 847 1978 
z
" transform="scale(0.015625)"/>
       <path id="ArialMT-77" d="M 1034 0 
L 19 3319 
L 600 3319 
L 1128 1403 
L 1325 691 
Q 1338 744 1497 1375 
L 2025 3319 
L 2603 3319 
L 3100 1394 
L 3266 759 
L 3456 1400 
L 4025 3319 
L 4572 3319 
L 3534 0 
L 2950 0 
L 2422 1988 
L 2294 2553 
L 1622 0 
L 1034 0 
z
" transform="scale(0.015625)"/>
       <path id="ArialMT-70" d="M 422 -1272 
L 422 3319 
L 934 3319 
L 934 2888 
Q 1116 3141 1344 3267 
Q 1572 3394 1897 3394 
Q 2322 3394 2647 3175 
Q 2972 2956 3137 2557 
Q 3303 2159 3303 1684 
Q 3303 1175 3120 767 
Q 2938 359 2589 142 
Q 2241 -75 1856 -75 
Q 1575 -75 1351 44 
Q 1128 163 984 344 
L 984 -1272 
L 422 -1272 
z
M 931 1641 
Q 931 1000 1190 694 
Q 1450 388 1819 388 
Q 2194 388 2461 705 
Q 2728 1022 2728 1688 
Q 2728 2322 2467 2637 
Q 2206 2953 1844 2953 
Q 1484 2953 1207 2617 
Q 931 2281 931 1641 
z
" transform="scale(0.015625)"/>
       <path id="ArialMT-6f" d="M 213 1659 
Q 213 2581 725 3025 
Q 1153 3394 1769 3394 
Q 2453 3394 2887 2945 
Q 3322 2497 3322 1706 
Q 3322 1066 3130 698 
Q 2938 331 2570 128 
Q 2203 -75 1769 -75 
Q 1072 -75 642 372 
Q 213 819 213 1659 
z
M 791 1659 
Q 791 1022 1069 705 
Q 1347 388 1769 388 
Q 2188 388 2466 706 
Q 2744 1025 2744 1678 
Q 2744 2294 2464 2611 
Q 2184 2928 1769 2928 
Q 1347 2928 1069 2612 
Q 791 2297 791 1659 
z
" transform="scale(0.015625)"/>
       <path id="ArialMT-69" d="M 425 3934 
L 425 4581 
L 988 4581 
L 988 3934 
L 425 3934 
z
M 425 0 
L 425 3319 
L 988 3319 
L 988 0 
L 425 0 
z
" transform="scale(0.015625)"/>
       <path id="ArialMT-6e" d="M 422 0 
L 422 3319 
L 928 3319 
L 928 2847 
Q 1294 3394 1984 3394 
Q 2284 3394 2536 3286 
Q 2788 3178 2913 3003 
Q 3038 2828 3088 2588 
Q 3119 2431 3119 2041 
L 3119 0 
L 2556 0 
L 2556 2019 
Q 2556 2363 2490 2533 
Q 2425 2703 2258 2804 
Q 2091 2906 1866 2906 
Q 1506 2906 1245 2678 
Q 984 2450 984 1813 
L 984 0 
L 422 0 
z
" transform="scale(0.015625)"/>
       <path id="ArialMT-74" d="M 1650 503 
L 1731 6 
Q 1494 -44 1306 -44 
Q 1000 -44 831 53 
Q 663 150 594 308 
Q 525 466 525 972 
L 525 2881 
L 113 2881 
L 113 3319 
L 525 3319 
L 525 4141 
L 1084 4478 
L 1084 3319 
L 1650 3319 
L 1650 2881 
L 1084 2881 
L 1084 941 
Q 1084 700 1114 631 
Q 1144 563 1211 522 
Q 1278 481 1403 481 
Q 1497 481 1650 503 
z
" transform="scale(0.015625)"/>
       <path id="ArialMT-20" transform="scale(0.015625)"/>
       <path id="ArialMT-6d" d="M 422 0 
L 422 3319 
L 925 3319 
L 925 2853 
Q 1081 3097 1340 3245 
Q 1600 3394 1931 3394 
Q 2300 3394 2536 3241 
Q 2772 3088 2869 2813 
Q 3263 3394 3894 3394 
Q 4388 3394 4653 3120 
Q 4919 2847 4919 2278 
L 4919 0 
L 4359 0 
L 4359 2091 
Q 4359 2428 4304 2576 
Q 4250 2725 4106 2815 
Q 3963 2906 3769 2906 
Q 3419 2906 3187 2673 
Q 2956 2441 2956 1928 
L 2956 0 
L 2394 0 
L 2394 2156 
Q 2394 2531 2256 2718 
Q 2119 2906 1806 2906 
Q 1569 2906 1367 2781 
Q 1166 2656 1075 2415 
Q 984 2175 984 1722 
L 984 0 
L 422 0 
z
" transform="scale(0.015625)"/>
       <path id="ArialMT-72" d="M 416 0 
L 416 3319 
L 922 3319 
L 922 2816 
Q 1116 3169 1280 3281 
Q 1444 3394 1641 3394 
Q 1925 3394 2219 3213 
L 2025 2691 
Q 1819 2813 1613 2813 
Q 1428 2813 1281 2702 
Q 1134 2591 1072 2394 
Q 978 2094 978 1738 
L 978 0 
L 416 0 
z
" transform="scale(0.015625)"/>
       <path id="ArialMT-61" d="M 2588 409 
Q 2275 144 1986 34 
Q 1697 -75 1366 -75 
Q 819 -75 525 192 
Q 231 459 231 875 
Q 231 1119 342 1320 
Q 453 1522 633 1644 
Q 813 1766 1038 1828 
Q 1203 1872 1538 1913 
Q 2219 1994 2541 2106 
Q 2544 2222 2544 2253 
Q 2544 2597 2384 2738 
Q 2169 2928 1744 2928 
Q 1347 2928 1158 2789 
Q 969 2650 878 2297 
L 328 2372 
Q 403 2725 575 2942 
Q 747 3159 1072 3276 
Q 1397 3394 1825 3394 
Q 2250 3394 2515 3294 
Q 2781 3194 2906 3042 
Q 3031 2891 3081 2659 
Q 3109 2516 3109 2141 
L 3109 1391 
Q 3109 606 3145 398 
Q 3181 191 3288 0 
L 2700 0 
Q 2613 175 2588 409 
z
M 2541 1666 
Q 2234 1541 1622 1453 
Q 1275 1403 1131 1340 
Q 988 1278 909 1158 
Q 831 1038 831 891 
Q 831 666 1001 516 
Q 1172 366 1500 366 
Q 1825 366 2078 508 
Q 2331 650 2450 897 
Q 2541 1088 2541 1459 
L 2541 1666 
z
" transform="scale(0.015625)"/>
       <path id="ArialMT-75" d="M 2597 0 
L 2597 488 
Q 2209 -75 1544 -75 
Q 1250 -75 995 37 
Q 741 150 617 320 
Q 494 491 444 738 
Q 409 903 409 1263 
L 409 3319 
L 972 3319 
L 972 1478 
Q 972 1038 1006 884 
Q 1059 663 1231 536 
Q 1403 409 1656 409 
Q 1909 409 2131 539 
Q 2353 669 2445 892 
Q 2538 1116 2538 1541 
L 2538 3319 
L 3100 3319 
L 3100 0 
L 2597 0 
z
" transform="scale(0.015625)"/>
       <path id="ArialMT-5b" d="M 434 -1272 
L 434 4581 
L 1675 4581 
L 1675 4116 
L 997 4116 
L 997 -806 
L 1675 -806 
L 1675 -1272 
L 434 -1272 
z
" transform="scale(0.015625)"/>
       <path id="ArialMT-b0" d="M 400 3794 
Q 400 4153 654 4406 
Q 909 4659 1266 4659 
Q 1628 4659 1881 4406 
Q 2134 4153 2134 3794 
Q 2134 3434 1879 3179 
Q 1625 2925 1266 2925 
Q 909 2925 654 3178 
Q 400 3431 400 3794 
z
M 741 3794 
Q 741 3575 895 3420 
Q 1050 3266 1269 3266 
Q 1484 3266 1639 3420 
Q 1794 3575 1794 3794 
Q 1794 4013 1639 4167 
Q 1484 4322 1269 4322 
Q 1050 4322 895 4167 
Q 741 4013 741 3794 
z
" transform="scale(0.015625)"/>
       <path id="ArialMT-43" d="M 3763 1606 
L 4369 1453 
Q 4178 706 3683 314 
Q 3188 -78 2472 -78 
Q 1731 -78 1267 223 
Q 803 525 561 1097 
Q 319 1669 319 2325 
Q 319 3041 592 3573 
Q 866 4106 1370 4382 
Q 1875 4659 2481 4659 
Q 3169 4659 3637 4309 
Q 4106 3959 4291 3325 
L 3694 3184 
Q 3534 3684 3231 3912 
Q 2928 4141 2469 4141 
Q 1941 4141 1586 3887 
Q 1231 3634 1087 3207 
Q 944 2781 944 2328 
Q 944 1744 1114 1308 
Q 1284 872 1643 656 
Q 2003 441 2422 441 
Q 2931 441 3284 734 
Q 3638 1028 3763 1606 
z
" transform="scale(0.015625)"/>
       <path id="ArialMT-5d" d="M 1363 -1272 
L 122 -1272 
L 122 -806 
L 800 -806 
L 800 4116 
L 122 4116 
L 122 4581 
L 1363 4581 
L 1363 -1272 
z
" transform="scale(0.015625)"/>
      </defs>
      <use xlink:href="#ArialMT-44"/>
      <use xlink:href="#ArialMT-65" x="72.216797"/>
      <use xlink:href="#ArialMT-77" x="127.832031"/>
      <use xlink:href="#ArialMT-70" x="200.048828"/>
      <use xlink:href="#ArialMT-6f" x="255.664062"/>
      <use xlink:href="#ArialMT-69" x="311.279297"/>
      <use xlink:href="#ArialMT-6e" x="333.496094"/>
      <use xlink:href="#ArialMT-74" x="389.111328"/>
      <use xlink:href="#ArialMT-20" x="416.894531"/>
      <use xlink:href="#ArialMT-74" x="444.677734"/>
      <use xlink:href="#ArialMT-65" x="472.460938"/>
      <use xlink:href="#ArialMT-6d" x="528.076172"/>
      <use xlink:href="#ArialMT-70" x="611.376953"/>
      <use xlink:href="#ArialMT-65" x="666.992188"/>
      <use xlink:href="#ArialMT-72" x="722.607422"/>
      <use xlink:href="#ArialMT-61" x="755.908203"/>
      <use xlink:href="#ArialMT-74" x="811.523438"/>
      <use xlink:href="#ArialMT-75" x="839.306641"/>
      <use xlink:href="#ArialMT-72" x="894.921875"/>
      <use xlink:href="#ArialMT-65" x="928.222656"/>
      <use xlink:href="#ArialMT-20" x="983.837891"/>
      <use xlink:href="#ArialMT-5b" x="1011.621094"/>
      <use xlink:href="#ArialMT-b0" x="1039.404297"/>
      <use xlink:href="#ArialMT-43" x="1079.394531"/>
      <use xlink:href="#ArialMT-5d" x="1151.611328"/>
     </g>
    </g>
   </g>
   <g id="matplotlib.axis_2">
    <g id="ytick_1">
     <g id="line2d_23">
      <path d="M 45.5425 121.7225 
L 206.0075 121.7225 
" clip-path="url(#p26b99559af)" style="fill: none; stroke: #b0b0b0; stroke-opacity: 0.2; stroke-width: 0.8; stroke-linecap: square"/>
     </g>
     <g id="line2d_24">
      <defs>
       <path id="m0362127ad1" d="M 0 0 
L -3.5 0 
" style="stroke: #000000; stroke-width: 0.8"/>
      </defs>
      <g>
       <use xlink:href="#m0362127ad1" x="45.5425" y="121.7225" style="stroke: #000000; stroke-width: 0.8"/>
      </g>
     </g>
     <g id="text_13">
      <!-- 0.0 -->
      <g transform="translate(24.6425 125.301406)scale(0.1 -0.1)">
       <defs>
        <path id="ArialMT-2e" d="M 581 0 
L 581 641 
L 1222 641 
L 1222 0 
L 581 0 
z
" transform="scale(0.015625)"/>
       </defs>
       <use xlink:href="#ArialMT-30"/>
       <use xlink:href="#ArialMT-2e" x="55.615234"/>
       <use xlink:href="#ArialMT-30" x="83.398438"/>
      </g>
     </g>
    </g>
    <g id="ytick_2">
     <g id="line2d_25">
      <path d="M 45.5425 108.129688 
L 206.0075 108.129688 
" clip-path="url(#p26b99559af)" style="fill: none; stroke: #b0b0b0; stroke-opacity: 0.2; stroke-width: 0.8; stroke-linecap: square"/>
     </g>
     <g id="line2d_26">
      <g>
       <use xlink:href="#m0362127ad1" x="45.5425" y="108.129688" style="stroke: #000000; stroke-width: 0.8"/>
      </g>
     </g>
     <g id="text_14">
      <!-- 0.004 -->
      <g transform="translate(13.520625 111.708594)scale(0.1 -0.1)">
       <defs>
        <path id="ArialMT-34" d="M 2069 0 
L 2069 1097 
L 81 1097 
L 81 1613 
L 2172 4581 
L 2631 4581 
L 2631 1613 
L 3250 1613 
L 3250 1097 
L 2631 1097 
L 2631 0 
L 2069 0 
z
M 2069 1613 
L 2069 3678 
L 634 1613 
L 2069 1613 
z
" transform="scale(0.015625)"/>
       </defs>
       <use xlink:href="#ArialMT-30"/>
       <use xlink:href="#ArialMT-2e" x="55.615234"/>
       <use xlink:href="#ArialMT-30" x="83.398438"/>
       <use xlink:href="#ArialMT-30" x="139.013672"/>
       <use xlink:href="#ArialMT-34" x="194.628906"/>
      </g>
     </g>
    </g>
    <g id="ytick_3">
     <g id="line2d_27">
      <path d="M 45.5425 94.536875 
L 206.0075 94.536875 
" clip-path="url(#p26b99559af)" style="fill: none; stroke: #b0b0b0; stroke-opacity: 0.2; stroke-width: 0.8; stroke-linecap: square"/>
     </g>
     <g id="line2d_28">
      <g>
       <use xlink:href="#m0362127ad1" x="45.5425" y="94.536875" style="stroke: #000000; stroke-width: 0.8"/>
      </g>
     </g>
     <g id="text_15">
      <!-- 0.008 -->
      <g transform="translate(13.520625 98.115781)scale(0.1 -0.1)">
       <defs>
        <path id="ArialMT-38" d="M 1131 2484 
Q 781 2613 612 2850 
Q 444 3088 444 3419 
Q 444 3919 803 4259 
Q 1163 4600 1759 4600 
Q 2359 4600 2725 4251 
Q 3091 3903 3091 3403 
Q 3091 3084 2923 2848 
Q 2756 2613 2416 2484 
Q 2838 2347 3058 2040 
Q 3278 1734 3278 1309 
Q 3278 722 2862 322 
Q 2447 -78 1769 -78 
Q 1091 -78 675 323 
Q 259 725 259 1325 
Q 259 1772 486 2073 
Q 713 2375 1131 2484 
z
M 1019 3438 
Q 1019 3113 1228 2906 
Q 1438 2700 1772 2700 
Q 2097 2700 2305 2904 
Q 2513 3109 2513 3406 
Q 2513 3716 2298 3927 
Q 2084 4138 1766 4138 
Q 1444 4138 1231 3931 
Q 1019 3725 1019 3438 
z
M 838 1322 
Q 838 1081 952 856 
Q 1066 631 1291 507 
Q 1516 384 1775 384 
Q 2178 384 2440 643 
Q 2703 903 2703 1303 
Q 2703 1709 2433 1975 
Q 2163 2241 1756 2241 
Q 1359 2241 1098 1978 
Q 838 1716 838 1322 
z
" transform="scale(0.015625)"/>
       </defs>
       <use xlink:href="#ArialMT-30"/>
       <use xlink:href="#ArialMT-2e" x="55.615234"/>
       <use xlink:href="#ArialMT-30" x="83.398438"/>
       <use xlink:href="#ArialMT-30" x="139.013672"/>
       <use xlink:href="#ArialMT-38" x="194.628906"/>
      </g>
     </g>
    </g>
    <g id="ytick_4">
     <g id="line2d_29">
      <path d="M 45.5425 80.944063 
L 206.0075 80.944063 
" clip-path="url(#p26b99559af)" style="fill: none; stroke: #b0b0b0; stroke-opacity: 0.2; stroke-width: 0.8; stroke-linecap: square"/>
     </g>
     <g id="line2d_30">
      <g>
       <use xlink:href="#m0362127ad1" x="45.5425" y="80.944063" style="stroke: #000000; stroke-width: 0.8"/>
      </g>
     </g>
     <g id="text_16">
      <!-- 0.012 -->
      <g transform="translate(13.520625 84.522969)scale(0.1 -0.1)">
       <use xlink:href="#ArialMT-30"/>
       <use xlink:href="#ArialMT-2e" x="55.615234"/>
       <use xlink:href="#ArialMT-30" x="83.398438"/>
       <use xlink:href="#ArialMT-31" x="139.013672"/>
       <use xlink:href="#ArialMT-32" x="194.628906"/>
      </g>
     </g>
    </g>
    <g id="ytick_5">
     <g id="line2d_31">
      <path d="M 45.5425 67.35125 
L 206.0075 67.35125 
" clip-path="url(#p26b99559af)" style="fill: none; stroke: #b0b0b0; stroke-opacity: 0.2; stroke-width: 0.8; stroke-linecap: square"/>
     </g>
     <g id="line2d_32">
      <g>
       <use xlink:href="#m0362127ad1" x="45.5425" y="67.35125" style="stroke: #000000; stroke-width: 0.8"/>
      </g>
     </g>
     <g id="text_17">
      <!-- 0.016 -->
      <g transform="translate(13.520625 70.930156)scale(0.1 -0.1)">
       <defs>
        <path id="ArialMT-36" d="M 3184 3459 
L 2625 3416 
Q 2550 3747 2413 3897 
Q 2184 4138 1850 4138 
Q 1581 4138 1378 3988 
Q 1113 3794 959 3422 
Q 806 3050 800 2363 
Q 1003 2672 1297 2822 
Q 1591 2972 1913 2972 
Q 2475 2972 2870 2558 
Q 3266 2144 3266 1488 
Q 3266 1056 3080 686 
Q 2894 316 2569 119 
Q 2244 -78 1831 -78 
Q 1128 -78 684 439 
Q 241 956 241 2144 
Q 241 3472 731 4075 
Q 1159 4600 1884 4600 
Q 2425 4600 2770 4297 
Q 3116 3994 3184 3459 
z
M 888 1484 
Q 888 1194 1011 928 
Q 1134 663 1356 523 
Q 1578 384 1822 384 
Q 2178 384 2434 671 
Q 2691 959 2691 1453 
Q 2691 1928 2437 2201 
Q 2184 2475 1800 2475 
Q 1419 2475 1153 2201 
Q 888 1928 888 1484 
z
" transform="scale(0.015625)"/>
       </defs>
       <use xlink:href="#ArialMT-30"/>
       <use xlink:href="#ArialMT-2e" x="55.615234"/>
       <use xlink:href="#ArialMT-30" x="83.398438"/>
       <use xlink:href="#ArialMT-31" x="139.013672"/>
       <use xlink:href="#ArialMT-36" x="194.628906"/>
      </g>
     </g>
    </g>
    <g id="ytick_6">
     <g id="line2d_33">
      <path d="M 45.5425 53.758438 
L 206.0075 53.758438 
" clip-path="url(#p26b99559af)" style="fill: none; stroke: #b0b0b0; stroke-opacity: 0.2; stroke-width: 0.8; stroke-linecap: square"/>
     </g>
     <g id="line2d_34">
      <g>
       <use xlink:href="#m0362127ad1" x="45.5425" y="53.758438" style="stroke: #000000; stroke-width: 0.8"/>
      </g>
     </g>
     <g id="text_18">
      <!-- 0.02 -->
      <g transform="translate(19.081563 57.337344)scale(0.1 -0.1)">
       <use xlink:href="#ArialMT-30"/>
       <use xlink:href="#ArialMT-2e" x="55.615234"/>
       <use xlink:href="#ArialMT-30" x="83.398438"/>
       <use xlink:href="#ArialMT-32" x="139.013672"/>
      </g>
     </g>
    </g>
    <g id="ytick_7">
     <g id="line2d_35">
      <path d="M 45.5425 40.165625 
L 206.0075 40.165625 
" clip-path="url(#p26b99559af)" style="fill: none; stroke: #b0b0b0; stroke-opacity: 0.2; stroke-width: 0.8; stroke-linecap: square"/>
     </g>
     <g id="line2d_36">
      <g>
       <use xlink:href="#m0362127ad1" x="45.5425" y="40.165625" style="stroke: #000000; stroke-width: 0.8"/>
      </g>
     </g>
     <g id="text_19">
      <!-- 0.024 -->
      <g transform="translate(13.520625 43.744531)scale(0.1 -0.1)">
       <use xlink:href="#ArialMT-30"/>
       <use xlink:href="#ArialMT-2e" x="55.615234"/>
       <use xlink:href="#ArialMT-30" x="83.398438"/>
       <use xlink:href="#ArialMT-32" x="139.013672"/>
       <use xlink:href="#ArialMT-34" x="194.628906"/>
      </g>
     </g>
    </g>
    <g id="ytick_8">
     <g id="line2d_37">
      <path d="M 45.5425 26.572813 
L 206.0075 26.572813 
" clip-path="url(#p26b99559af)" style="fill: none; stroke: #b0b0b0; stroke-opacity: 0.2; stroke-width: 0.8; stroke-linecap: square"/>
     </g>
     <g id="line2d_38">
      <g>
       <use xlink:href="#m0362127ad1" x="45.5425" y="26.572813" style="stroke: #000000; stroke-width: 0.8"/>
      </g>
     </g>
     <g id="text_20">
      <!-- 0.028 -->
      <g transform="translate(13.520625 30.151719)scale(0.1 -0.1)">
       <use xlink:href="#ArialMT-30"/>
       <use xlink:href="#ArialMT-2e" x="55.615234"/>
       <use xlink:href="#ArialMT-30" x="83.398438"/>
       <use xlink:href="#ArialMT-32" x="139.013672"/>
       <use xlink:href="#ArialMT-38" x="194.628906"/>
      </g>
     </g>
    </g>
    <g id="ytick_9">
     <g id="line2d_39">
      <path d="M 45.5425 12.98 
L 206.0075 12.98 
" clip-path="url(#p26b99559af)" style="fill: none; stroke: #b0b0b0; stroke-opacity: 0.2; stroke-width: 0.8; stroke-linecap: square"/>
     </g>
     <g id="line2d_40">
      <g>
       <use xlink:href="#m0362127ad1" x="45.5425" y="12.98" style="stroke: #000000; stroke-width: 0.8"/>
      </g>
     </g>
     <g id="text_21">
      <!-- 0.032 -->
      <g transform="translate(13.520625 16.558906)scale(0.1 -0.1)">
       <use xlink:href="#ArialMT-30"/>
       <use xlink:href="#ArialMT-2e" x="55.615234"/>
       <use xlink:href="#ArialMT-30" x="83.398438"/>
       <use xlink:href="#ArialMT-33" x="139.013672"/>
       <use xlink:href="#ArialMT-32" x="194.628906"/>
      </g>
     </g>
    </g>
    <g id="text_22">
     <!-- Probability -->
     <g transform="translate(7.415938 90.695)rotate(-90)scale(0.1 -0.1)">
      <defs>
       <path id="ArialMT-50" d="M 494 0 
L 494 4581 
L 2222 4581 
Q 2678 4581 2919 4538 
Q 3256 4481 3484 4323 
Q 3713 4166 3852 3881 
Q 3991 3597 3991 3256 
Q 3991 2672 3619 2267 
Q 3247 1863 2275 1863 
L 1100 1863 
L 1100 0 
L 494 0 
z
M 1100 2403 
L 2284 2403 
Q 2872 2403 3119 2622 
Q 3366 2841 3366 3238 
Q 3366 3525 3220 3729 
Q 3075 3934 2838 4000 
Q 2684 4041 2272 4041 
L 1100 4041 
L 1100 2403 
z
" transform="scale(0.015625)"/>
       <path id="ArialMT-62" d="M 941 0 
L 419 0 
L 419 4581 
L 981 4581 
L 981 2947 
Q 1338 3394 1891 3394 
Q 2197 3394 2470 3270 
Q 2744 3147 2920 2923 
Q 3097 2700 3197 2384 
Q 3297 2069 3297 1709 
Q 3297 856 2875 390 
Q 2453 -75 1863 -75 
Q 1275 -75 941 416 
L 941 0 
z
M 934 1684 
Q 934 1088 1097 822 
Q 1363 388 1816 388 
Q 2184 388 2453 708 
Q 2722 1028 2722 1663 
Q 2722 2313 2464 2622 
Q 2206 2931 1841 2931 
Q 1472 2931 1203 2611 
Q 934 2291 934 1684 
z
" transform="scale(0.015625)"/>
       <path id="ArialMT-6c" d="M 409 0 
L 409 4581 
L 972 4581 
L 972 0 
L 409 0 
z
" transform="scale(0.015625)"/>
       <path id="ArialMT-79" d="M 397 -1278 
L 334 -750 
Q 519 -800 656 -800 
Q 844 -800 956 -737 
Q 1069 -675 1141 -563 
Q 1194 -478 1313 -144 
Q 1328 -97 1363 -6 
L 103 3319 
L 709 3319 
L 1400 1397 
Q 1534 1031 1641 628 
Q 1738 1016 1872 1384 
L 2581 3319 
L 3144 3319 
L 1881 -56 
Q 1678 -603 1566 -809 
Q 1416 -1088 1222 -1217 
Q 1028 -1347 759 -1347 
Q 597 -1347 397 -1278 
z
" transform="scale(0.015625)"/>
      </defs>
      <use xlink:href="#ArialMT-50"/>
      <use xlink:href="#ArialMT-72" x="66.699219"/>
      <use xlink:href="#ArialMT-6f" x="100"/>
      <use xlink:href="#ArialMT-62" x="155.615234"/>
      <use xlink:href="#ArialMT-61" x="211.230469"/>
      <use xlink:href="#ArialMT-62" x="266.845703"/>
      <use xlink:href="#ArialMT-69" x="322.460938"/>
      <use xlink:href="#ArialMT-6c" x="344.677734"/>
      <use xlink:href="#ArialMT-69" x="366.894531"/>
      <use xlink:href="#ArialMT-74" x="389.111328"/>
      <use xlink:href="#ArialMT-79" x="416.894531"/>
     </g>
    </g>
   </g>
   <g id="patch_100">
    <path d="M 45.5425 121.7225 
L 45.5425 12.98 
" style="fill: none; stroke: #000000; stroke-width: 0.8; stroke-linejoin: miter; stroke-linecap: square"/>
   </g>
   <g id="patch_101">
    <path d="M 206.0075 121.7225 
L 206.0075 12.98 
" style="fill: none; stroke: #000000; stroke-width: 0.8; stroke-linejoin: miter; stroke-linecap: square"/>
   </g>
   <g id="patch_102">
    <path d="M 45.5425 121.7225 
L 206.0075 121.7225 
" style="fill: none; stroke: #000000; stroke-width: 0.8; stroke-linejoin: miter; stroke-linecap: square"/>
   </g>
   <g id="patch_103">
    <path d="M 45.5425 12.98 
L 206.0075 12.98 
" style="fill: none; stroke: #000000; stroke-width: 0.8; stroke-linejoin: miter; stroke-linecap: square"/>
   </g>
  </g>
  <g id="axes_2">
   <g id="matplotlib.axis_3">
    <g id="ytick_10">
     <g id="line2d_41">
      <defs>
       <path id="m3a18754423" d="M 0 0 
L 3.5 0 
" style="stroke: #000000; stroke-width: 0.8"/>
      </defs>
      <g>
       <use xlink:href="#m3a18754423" x="206.0075" y="121.7225" style="stroke: #000000; stroke-width: 0.8"/>
      </g>
     </g>
     <g id="text_23">
      <!-- 0 -->
      <g style="fill: #0000ff" transform="translate(213.0075 125.301406)scale(0.1 -0.1)">
       <use xlink:href="#ArialMT-30"/>
      </g>
     </g>
    </g>
    <g id="ytick_11">
     <g id="line2d_42">
      <g>
       <use xlink:href="#m3a18754423" x="206.0075" y="108.129688" style="stroke: #000000; stroke-width: 0.8"/>
      </g>
     </g>
     <g id="text_24">
      <!-- 3 -->
      <g style="fill: #0000ff" transform="translate(213.0075 111.708594)scale(0.1 -0.1)">
       <use xlink:href="#ArialMT-33"/>
      </g>
     </g>
    </g>
    <g id="ytick_12">
     <g id="line2d_43">
      <g>
       <use xlink:href="#m3a18754423" x="206.0075" y="94.536875" style="stroke: #000000; stroke-width: 0.8"/>
      </g>
     </g>
     <g id="text_25">
      <!-- 6 -->
      <g style="fill: #0000ff" transform="translate(213.0075 98.115781)scale(0.1 -0.1)">
       <use xlink:href="#ArialMT-36"/>
      </g>
     </g>
    </g>
    <g id="ytick_13">
     <g id="line2d_44">
      <g>
       <use xlink:href="#m3a18754423" x="206.0075" y="80.944063" style="stroke: #000000; stroke-width: 0.8"/>
      </g>
     </g>
     <g id="text_26">
      <!-- 9 -->
      <g style="fill: #0000ff" transform="translate(213.0075 84.522969)scale(0.1 -0.1)">
       <defs>
        <path id="ArialMT-39" d="M 350 1059 
L 891 1109 
Q 959 728 1153 556 
Q 1347 384 1650 384 
Q 1909 384 2104 503 
Q 2300 622 2425 820 
Q 2550 1019 2634 1356 
Q 2719 1694 2719 2044 
Q 2719 2081 2716 2156 
Q 2547 1888 2255 1720 
Q 1963 1553 1622 1553 
Q 1053 1553 659 1965 
Q 266 2378 266 3053 
Q 266 3750 677 4175 
Q 1088 4600 1706 4600 
Q 2153 4600 2523 4359 
Q 2894 4119 3086 3673 
Q 3278 3228 3278 2384 
Q 3278 1506 3087 986 
Q 2897 466 2520 194 
Q 2144 -78 1638 -78 
Q 1100 -78 759 220 
Q 419 519 350 1059 
z
M 2653 3081 
Q 2653 3566 2395 3850 
Q 2138 4134 1775 4134 
Q 1400 4134 1122 3828 
Q 844 3522 844 3034 
Q 844 2597 1108 2323 
Q 1372 2050 1759 2050 
Q 2150 2050 2401 2323 
Q 2653 2597 2653 3081 
z
" transform="scale(0.015625)"/>
       </defs>
       <use xlink:href="#ArialMT-39"/>
      </g>
     </g>
    </g>
    <g id="ytick_14">
     <g id="line2d_45">
      <g>
       <use xlink:href="#m3a18754423" x="206.0075" y="67.35125" style="stroke: #000000; stroke-width: 0.8"/>
      </g>
     </g>
     <g id="text_27">
      <!-- 12 -->
      <g style="fill: #0000ff" transform="translate(213.0075 70.930156)scale(0.1 -0.1)">
       <use xlink:href="#ArialMT-31"/>
       <use xlink:href="#ArialMT-32" x="55.615234"/>
      </g>
     </g>
    </g>
    <g id="ytick_15">
     <g id="line2d_46">
      <g>
       <use xlink:href="#m3a18754423" x="206.0075" y="53.758438" style="stroke: #000000; stroke-width: 0.8"/>
      </g>
     </g>
     <g id="text_28">
      <!-- 15 -->
      <g style="fill: #0000ff" transform="translate(213.0075 57.337344)scale(0.1 -0.1)">
       <use xlink:href="#ArialMT-31"/>
       <use xlink:href="#ArialMT-35" x="55.615234"/>
      </g>
     </g>
    </g>
    <g id="ytick_16">
     <g id="line2d_47">
      <g>
       <use xlink:href="#m3a18754423" x="206.0075" y="40.165625" style="stroke: #000000; stroke-width: 0.8"/>
      </g>
     </g>
     <g id="text_29">
      <!-- 18 -->
      <g style="fill: #0000ff" transform="translate(213.0075 43.744531)scale(0.1 -0.1)">
       <use xlink:href="#ArialMT-31"/>
       <use xlink:href="#ArialMT-38" x="55.615234"/>
      </g>
     </g>
    </g>
    <g id="ytick_17">
     <g id="line2d_48">
      <g>
       <use xlink:href="#m3a18754423" x="206.0075" y="26.572813" style="stroke: #000000; stroke-width: 0.8"/>
      </g>
     </g>
     <g id="text_30">
      <!-- 21 -->
      <g style="fill: #0000ff" transform="translate(213.0075 30.151719)scale(0.1 -0.1)">
       <use xlink:href="#ArialMT-32"/>
       <use xlink:href="#ArialMT-31" x="55.615234"/>
      </g>
     </g>
    </g>
    <g id="ytick_18">
     <g id="line2d_49">
      <g>
       <use xlink:href="#m3a18754423" x="206.0075" y="12.98" style="stroke: #000000; stroke-width: 0.8"/>
      </g>
     </g>
     <g id="text_31">
      <!-- 24 -->
      <g style="fill: #0000ff" transform="translate(213.0075 16.558906)scale(0.1 -0.1)">
       <use xlink:href="#ArialMT-32"/>
       <use xlink:href="#ArialMT-34" x="55.615234"/>
      </g>
     </g>
    </g>
    <g id="text_32">
     <!-- Hour of the day -->
     <g style="fill: #0000ff" transform="translate(235.409062 101.535625)rotate(-90)scale(0.1 -0.1)">
      <defs>
       <path id="ArialMT-48" d="M 513 0 
L 513 4581 
L 1119 4581 
L 1119 2700 
L 3500 2700 
L 3500 4581 
L 4106 4581 
L 4106 0 
L 3500 0 
L 3500 2159 
L 1119 2159 
L 1119 0 
L 513 0 
z
" transform="scale(0.015625)"/>
       <path id="ArialMT-66" d="M 556 0 
L 556 2881 
L 59 2881 
L 59 3319 
L 556 3319 
L 556 3672 
Q 556 4006 616 4169 
Q 697 4388 901 4523 
Q 1106 4659 1475 4659 
Q 1713 4659 2000 4603 
L 1916 4113 
Q 1741 4144 1584 4144 
Q 1328 4144 1222 4034 
Q 1116 3925 1116 3625 
L 1116 3319 
L 1763 3319 
L 1763 2881 
L 1116 2881 
L 1116 0 
L 556 0 
z
" transform="scale(0.015625)"/>
       <path id="ArialMT-68" d="M 422 0 
L 422 4581 
L 984 4581 
L 984 2938 
Q 1378 3394 1978 3394 
Q 2347 3394 2619 3248 
Q 2891 3103 3008 2847 
Q 3125 2591 3125 2103 
L 3125 0 
L 2563 0 
L 2563 2103 
Q 2563 2525 2380 2717 
Q 2197 2909 1863 2909 
Q 1613 2909 1392 2779 
Q 1172 2650 1078 2428 
Q 984 2206 984 1816 
L 984 0 
L 422 0 
z
" transform="scale(0.015625)"/>
       <path id="ArialMT-64" d="M 2575 0 
L 2575 419 
Q 2259 -75 1647 -75 
Q 1250 -75 917 144 
Q 584 363 401 755 
Q 219 1147 219 1656 
Q 219 2153 384 2558 
Q 550 2963 881 3178 
Q 1213 3394 1622 3394 
Q 1922 3394 2156 3267 
Q 2391 3141 2538 2938 
L 2538 4581 
L 3097 4581 
L 3097 0 
L 2575 0 
z
M 797 1656 
Q 797 1019 1065 703 
Q 1334 388 1700 388 
Q 2069 388 2326 689 
Q 2584 991 2584 1609 
Q 2584 2291 2321 2609 
Q 2059 2928 1675 2928 
Q 1300 2928 1048 2622 
Q 797 2316 797 1656 
z
" transform="scale(0.015625)"/>
      </defs>
      <use xlink:href="#ArialMT-48"/>
      <use xlink:href="#ArialMT-6f" x="72.216797"/>
      <use xlink:href="#ArialMT-75" x="127.832031"/>
      <use xlink:href="#ArialMT-72" x="183.447266"/>
      <use xlink:href="#ArialMT-20" x="216.748047"/>
      <use xlink:href="#ArialMT-6f" x="244.53125"/>
      <use xlink:href="#ArialMT-66" x="300.146484"/>
      <use xlink:href="#ArialMT-20" x="327.929688"/>
      <use xlink:href="#ArialMT-74" x="355.712891"/>
      <use xlink:href="#ArialMT-68" x="383.496094"/>
      <use xlink:href="#ArialMT-65" x="439.111328"/>
      <use xlink:href="#ArialMT-20" x="494.726562"/>
      <use xlink:href="#ArialMT-64" x="522.509766"/>
      <use xlink:href="#ArialMT-61" x="578.125"/>
      <use xlink:href="#ArialMT-79" x="633.740234"/>
     </g>
    </g>
   </g>
   <g id="line2d_50">
    <path d="M 106.19827 121.7225 
L 109.40757 117.191563 
L 111.01222 112.660625 
L 119.03547 108.129688 
L 119.3564 103.59875 
L 123.20756 99.067813 
L 128.66337 94.536875 
L 132.51453 90.005938 
L 133.79825 85.475 
L 144.06801 80.944063 
L 149.52382 76.413125 
L 157.868 71.882188 
L 162.04009 67.35125 
L 189.961 62.820313 
L 196.70053 58.289375 
L 164.2866 53.758438 
L 161.71916 49.2275 
L 164.2866 44.696563 
L 161.39823 40.165625 
L 158.18893 35.634688 
L 151.4494 31.10375 
L 147.91917 26.572813 
L 149.20289 22.041875 
L 145.0308 17.510938 
L 144.38894 12.98 
" clip-path="url(#p26b99559af)" style="fill: none; stroke: #0000ff; stroke-width: 1.5; stroke-linecap: square"/>
   </g>
   <g id="LineCollection_1">
    <path d="M 79.24015 121.7225 
L 79.24015 12.98 
" clip-path="url(#p26b99559af)" style="fill: none; stroke: #ff0000; stroke-width: 1.5"/>
   </g>
   <g id="LineCollection_2">
    <path d="M 183.5424 121.7225 
L 183.5424 12.98 
" clip-path="url(#p26b99559af)" style="fill: none; stroke: #ff0000; stroke-width: 1.5"/>
   </g>
   <g id="patch_104">
    <path d="M 45.5425 121.7225 
L 45.5425 12.98 
" style="fill: none; stroke: #000000; stroke-width: 0.8; stroke-linejoin: miter; stroke-linecap: square"/>
   </g>
   <g id="patch_105">
    <path d="M 206.0075 121.7225 
L 206.0075 12.98 
" style="fill: none; stroke: #000000; stroke-width: 0.8; stroke-linejoin: miter; stroke-linecap: square"/>
   </g>
   <g id="patch_106">
    <path d="M 45.5425 121.7225 
L 206.0075 121.7225 
" style="fill: none; stroke: #000000; stroke-width: 0.8; stroke-linejoin: miter; stroke-linecap: square"/>
   </g>
   <g id="patch_107">
    <path d="M 45.5425 12.98 
L 206.0075 12.98 
" style="fill: none; stroke: #000000; stroke-width: 0.8; stroke-linejoin: miter; stroke-linecap: square"/>
   </g>
   <g id="text_33">
    <!-- Tampered Year -->
    <g transform="translate(90.379687 6.98)scale(0.1 -0.1)">
     <defs>
      <path id="Arial-BoldMT-54" d="M 1497 0 
L 1497 3806 
L 138 3806 
L 138 4581 
L 3778 4581 
L 3778 3806 
L 2422 3806 
L 2422 0 
L 1497 0 
z
" transform="scale(0.015625)"/>
      <path id="Arial-BoldMT-61" d="M 1116 2306 
L 319 2450 
Q 453 2931 781 3162 
Q 1109 3394 1756 3394 
Q 2344 3394 2631 3255 
Q 2919 3116 3036 2902 
Q 3153 2688 3153 2116 
L 3144 1091 
Q 3144 653 3186 445 
Q 3228 238 3344 0 
L 2475 0 
Q 2441 88 2391 259 
Q 2369 338 2359 363 
Q 2134 144 1878 34 
Q 1622 -75 1331 -75 
Q 819 -75 523 203 
Q 228 481 228 906 
Q 228 1188 362 1408 
Q 497 1628 739 1745 
Q 981 1863 1438 1950 
Q 2053 2066 2291 2166 
L 2291 2253 
Q 2291 2506 2166 2614 
Q 2041 2722 1694 2722 
Q 1459 2722 1328 2630 
Q 1197 2538 1116 2306 
z
M 2291 1594 
Q 2122 1538 1756 1459 
Q 1391 1381 1278 1306 
Q 1106 1184 1106 997 
Q 1106 813 1243 678 
Q 1381 544 1594 544 
Q 1831 544 2047 700 
Q 2206 819 2256 991 
Q 2291 1103 2291 1419 
L 2291 1594 
z
" transform="scale(0.015625)"/>
      <path id="Arial-BoldMT-6d" d="M 394 3319 
L 1203 3319 
L 1203 2866 
Q 1638 3394 2238 3394 
Q 2556 3394 2790 3262 
Q 3025 3131 3175 2866 
Q 3394 3131 3647 3262 
Q 3900 3394 4188 3394 
Q 4553 3394 4806 3245 
Q 5059 3097 5184 2809 
Q 5275 2597 5275 2122 
L 5275 0 
L 4397 0 
L 4397 1897 
Q 4397 2391 4306 2534 
Q 4184 2722 3931 2722 
Q 3747 2722 3584 2609 
Q 3422 2497 3350 2280 
Q 3278 2063 3278 1594 
L 3278 0 
L 2400 0 
L 2400 1819 
Q 2400 2303 2353 2443 
Q 2306 2584 2207 2653 
Q 2109 2722 1941 2722 
Q 1738 2722 1575 2612 
Q 1413 2503 1342 2297 
Q 1272 2091 1272 1613 
L 1272 0 
L 394 0 
L 394 3319 
z
" transform="scale(0.015625)"/>
      <path id="Arial-BoldMT-70" d="M 434 3319 
L 1253 3319 
L 1253 2831 
Q 1413 3081 1684 3237 
Q 1956 3394 2288 3394 
Q 2866 3394 3269 2941 
Q 3672 2488 3672 1678 
Q 3672 847 3265 386 
Q 2859 -75 2281 -75 
Q 2006 -75 1782 34 
Q 1559 144 1313 409 
L 1313 -1263 
L 434 -1263 
L 434 3319 
z
M 1303 1716 
Q 1303 1156 1525 889 
Q 1747 622 2066 622 
Q 2372 622 2575 867 
Q 2778 1113 2778 1672 
Q 2778 2194 2568 2447 
Q 2359 2700 2050 2700 
Q 1728 2700 1515 2451 
Q 1303 2203 1303 1716 
z
" transform="scale(0.015625)"/>
      <path id="Arial-BoldMT-65" d="M 2381 1056 
L 3256 909 
Q 3088 428 2723 176 
Q 2359 -75 1813 -75 
Q 947 -75 531 491 
Q 203 944 203 1634 
Q 203 2459 634 2926 
Q 1066 3394 1725 3394 
Q 2466 3394 2894 2905 
Q 3322 2416 3303 1406 
L 1103 1406 
Q 1113 1016 1316 798 
Q 1519 581 1822 581 
Q 2028 581 2168 693 
Q 2309 806 2381 1056 
z
M 2431 1944 
Q 2422 2325 2234 2523 
Q 2047 2722 1778 2722 
Q 1491 2722 1303 2513 
Q 1116 2303 1119 1944 
L 2431 1944 
z
" transform="scale(0.015625)"/>
      <path id="Arial-BoldMT-72" d="M 1300 0 
L 422 0 
L 422 3319 
L 1238 3319 
L 1238 2847 
Q 1447 3181 1614 3287 
Q 1781 3394 1994 3394 
Q 2294 3394 2572 3228 
L 2300 2463 
Q 2078 2606 1888 2606 
Q 1703 2606 1575 2504 
Q 1447 2403 1373 2137 
Q 1300 1872 1300 1025 
L 1300 0 
z
" transform="scale(0.015625)"/>
      <path id="Arial-BoldMT-64" d="M 3503 0 
L 2688 0 
L 2688 488 
Q 2484 203 2207 64 
Q 1931 -75 1650 -75 
Q 1078 -75 670 386 
Q 263 847 263 1672 
Q 263 2516 659 2955 
Q 1056 3394 1663 3394 
Q 2219 3394 2625 2931 
L 2625 4581 
L 3503 4581 
L 3503 0 
z
M 1159 1731 
Q 1159 1200 1306 963 
Q 1519 619 1900 619 
Q 2203 619 2415 876 
Q 2628 1134 2628 1647 
Q 2628 2219 2422 2470 
Q 2216 2722 1894 2722 
Q 1581 2722 1370 2473 
Q 1159 2225 1159 1731 
z
" transform="scale(0.015625)"/>
      <path id="Arial-BoldMT-20" transform="scale(0.015625)"/>
      <path id="Arial-BoldMT-59" d="M 1669 0 
L 1669 1928 
L -9 4581 
L 1075 4581 
L 2153 2769 
L 3209 4581 
L 4275 4581 
L 2591 1922 
L 2591 0 
L 1669 0 
z
" transform="scale(0.015625)"/>
     </defs>
     <use xlink:href="#Arial-BoldMT-54"/>
     <use xlink:href="#Arial-BoldMT-61" x="53.708984"/>
     <use xlink:href="#Arial-BoldMT-6d" x="109.324219"/>
     <use xlink:href="#Arial-BoldMT-70" x="198.240234"/>
     <use xlink:href="#Arial-BoldMT-65" x="259.324219"/>
     <use xlink:href="#Arial-BoldMT-72" x="314.939453"/>
     <use xlink:href="#Arial-BoldMT-65" x="353.855469"/>
     <use xlink:href="#Arial-BoldMT-64" x="409.470703"/>
     <use xlink:href="#Arial-BoldMT-20" x="470.554688"/>
     <use xlink:href="#Arial-BoldMT-59" x="496.587891"/>
     <use xlink:href="#Arial-BoldMT-65" x="557.787109"/>
     <use xlink:href="#Arial-BoldMT-61" x="613.402344"/>
     <use xlink:href="#Arial-BoldMT-72" x="669.017578"/>
    </g>
   </g>
  </g>
 </g>
 <defs>
  <clipPath id="p26b99559af">
   <rect x="45.5425" y="12.98" width="160.465" height="108.7425"/>
  </clipPath>
 </defs>
</svg>
